<?xml version="1.0" encoding="utf-8"?>
<!-- Generator: Adobe Illustrator 19.2.0, SVG Export Plug-In . SVG Version: 6.00 Build 0)  -->
<svg version="1.1" id="Layer_1" xmlns="http://www.w3.org/2000/svg" xmlns:xlink="http://www.w3.org/1999/xlink" x="0px" y="0px"
	 viewBox="0 0 1070 713.6" style="enable-background:new 0 0 1070 713.6;" xml:space="preserve">
<style type="text/css">
	.st0{fill:none;stroke:#6D9FA0;}
	.st1{fill:none;}
	.st2{fill:#EEEEEE;stroke:#077553;}
	.st3{font-family:'FranklinGothic-Medium';}
	.st4{font-size:9px;}
</style>
<path class="st0" d="M30.7,524.2c137.7,0,137.7,0,275.3,0"/>
<path class="st0" d="M306.1,524.2c137.7,0,137.7-327.1,275.3-327.1"/>
<path class="st0" d="M306.1,524.2c137.7,0,137.7-143.6,275.3-143.6"/>
<path class="st0" d="M306.1,524.2c137.7,0,137.7-69.4,275.3-69.4"/>
<path class="st0" d="M306.1,524.2c137.7,0,137.7,0.5,275.3,0.5"/>
<path class="st0" d="M306.1,524.2c137.7,0,137.7,52.9,275.3,52.9"/>
<path class="st0" d="M306.1,524.2c137.7,0,137.7,92.2,275.3,92.2"/>
<path class="st0" d="M306.1,524.2c137.7,0,137.7,109.7,275.3,109.7"/>
<path class="st0" d="M306.1,524.2c137.7,0,137.7,131.5,275.3,131.5"/>
<path class="st0" d="M306.1,524.2c137.7,0,137.7,153.3,275.3,153.3"/>
<path class="st0" d="M581.4,197.1C719,197.1,719,48.7,856.7,48.7"/>
<path class="st0" d="M581.4,197.1C719,197.1,719,57.4,856.7,57.4"/>
<path class="st0" d="M581.4,197.1c137.7,0,137.7-131,275.3-131"/>
<path class="st0" d="M581.4,197.1C719,197.1,719,74.9,856.7,74.9"/>
<path class="st0" d="M581.4,197.1C719,197.1,719,83.6,856.7,83.6"/>
<path class="st0" d="M581.4,197.1C719,197.1,719,92.3,856.7,92.3"/>
<path class="st0" d="M581.4,197.1c137.7,0,137.7-96.1,275.3-96.1"/>
<path class="st0" d="M581.4,197.1c137.7,0,137.7-87.3,275.3-87.3"/>
<path class="st0" d="M581.4,197.1c137.7,0,137.7-78.6,275.3-78.6"/>
<path class="st0" d="M581.4,197.1c137.7,0,137.7-69.9,275.3-69.9"/>
<path class="st0" d="M581.4,197.1C719,197.1,719,136,856.7,136"/>
<path class="st0" d="M581.4,197.1c137.7,0,137.7-52.4,275.3-52.4"/>
<path class="st0" d="M581.4,197.1c137.7,0,137.7-43.7,275.3-43.7"/>
<path class="st0" d="M581.4,197.1c137.7,0,137.7-34.9,275.3-34.9"/>
<path class="st0" d="M581.4,197.1c137.7,0,137.7-26.2,275.3-26.2"/>
<path class="st0" d="M581.4,197.1c137.7,0,137.7-17.5,275.3-17.5"/>
<path class="st0" d="M581.4,197.1c137.7,0,137.7-8.7,275.3-8.7"/>
<path class="st0" d="M581.4,197.1c137.7,0,137.7,0,275.3,0"/>
<path class="st0" d="M581.4,197.1c137.7,0,137.7,8.7,275.3,8.7"/>
<path class="st0" d="M581.4,197.1c137.7,0,137.7,17.5,275.3,17.5"/>
<path class="st0" d="M581.4,197.1c137.7,0,137.7,26.2,275.3,26.2"/>
<path class="st0" d="M581.4,197.1c137.7,0,137.7,34.9,275.3,34.9"/>
<path class="st0" d="M581.4,197.1c137.7,0,137.7,43.7,275.3,43.7"/>
<path class="st0" d="M581.4,197.1c137.7,0,137.7,52.4,275.3,52.4"/>
<path class="st0" d="M581.4,197.1c137.7,0,137.7,61.1,275.3,61.1"/>
<path class="st0" d="M581.4,197.1C719,197.1,719,267,856.7,267"/>
<path class="st0" d="M581.4,197.1c137.7,0,137.7,78.6,275.3,78.6"/>
<path class="st0" d="M581.4,197.1c137.7,0,137.7,87.3,275.3,87.3"/>
<path class="st0" d="M581.4,197.1c137.7,0,137.7,96.1,275.3,96.1"/>
<path class="st0" d="M581.4,197.1C719,197.1,719,302,856.7,302"/>
<path class="st0" d="M581.4,197.1c137.7,0,137.7,113.6,275.3,113.6"/>
<path class="st0" d="M581.4,197.1c137.7,0,137.7,122.3,275.3,122.3"/>
<path class="st0" d="M581.4,197.1c137.7,0,137.7,131,275.3,131"/>
<path id="SVGID_x5F_1_x5F_" class="st1" d="M581.4,197.1c137.7,0,137.7,139.8,275.3,139.8"/>
<text><textPath  xlink:href="#SVGID_x5F_1_x5F_" startOffset="26.709%">
</textPath>
</text>
<path class="st0" d="M581.4,197.1c137.7,0,137.7,148.5,275.3,148.5"/>
<path class="st0" d="M581.4,380.6c137.7,0,137.7-17.5,275.3-17.5"/>
<path class="st0" d="M581.4,380.6c137.7,0,137.7-8.7,275.3-8.7"/>
<path class="st0" d="M581.4,380.6c137.7,0,137.7,0,275.3,0"/>
<path class="st0" d="M581.4,380.6c137.7,0,137.7,8.7,275.3,8.7"/>
<path class="st0" d="M581.4,380.6C719,380.6,719,398,856.7,398"/>
<path class="st0" d="M581.4,454.8c137.7,0,137.7-39.3,275.3-39.3"/>
<path class="st0" d="M581.4,454.8c137.7,0,137.7-30.6,275.3-30.6"/>
<path class="st0" d="M581.4,454.8C719,454.8,719,433,856.7,433"/>
<path class="st0" d="M581.4,454.8c137.7,0,137.7-13.1,275.3-13.1"/>
<path class="st0" d="M581.4,454.8c137.7,0,137.7-4.4,275.3-4.4"/>
<path class="st0" d="M581.4,454.8c137.7,0,137.7,4.4,275.3,4.4"/>
<path class="st0" d="M581.4,454.8c137.7,0,137.7,13.1,275.3,13.1"/>
<path class="st0" d="M581.4,454.8c137.7,0,137.7,21.8,275.3,21.8"/>
<path class="st0" d="M581.4,454.8c137.7,0,137.7,30.6,275.3,30.6"/>
<path class="st0" d="M581.4,454.8c137.7,0,137.7,39.3,275.3,39.3"/>
<path class="st0" d="M581.4,524.7c137.7,0,137.7-13.1,275.3-13.1"/>
<path class="st0" d="M581.4,524.7c137.7,0,137.7-4.4,275.3-4.4"/>
<path class="st0" d="M581.4,524.7c137.7,0,137.7,4.4,275.3,4.4"/>
<path class="st0" d="M581.4,524.7c137.7,0,137.7,13.1,275.3,13.1"/>
<path class="st0" d="M581.4,577.1c137.7,0,137.7-21.8,275.3-21.8"/>
<path class="st0" d="M581.4,577.1C719,577.1,719,564,856.7,564"/>
<path class="st0" d="M581.4,577.1c137.7,0,137.7-4.4,275.3-4.4"/>
<path class="st0" d="M581.4,577.1c137.7,0,137.7,4.4,275.3,4.4"/>
<path class="st0" d="M581.4,577.1c137.7,0,137.7,13.1,275.3,13.1"/>
<path class="st0" d="M581.4,577.1C719,577.1,719,599,856.7,599"/>
<path class="st0" d="M581.4,616.4c137.7,0,137.7,0,275.3,0"/>
<path class="st0" d="M581.4,633.9c137.7,0,137.7,0,275.3,0"/>
<path class="st0" d="M581.4,655.7c137.7,0,137.7-4.4,275.3-4.4"/>
<path class="st0" d="M581.4,655.7c137.7,0,137.7,4.4,275.3,4.4"/>
<path class="st0" d="M581.4,677.6c137.7,0,137.7,0,275.3,0"/>
<g transform="translate(0,539.4594594594594)">
	<circle class="st2" cx="30.7" cy="-15.2" r="4"/>
</g>
<circle class="st2" cx="306.1" cy="524.2" r="4"/>
<text transform="matrix(1 0 0 1 268.1846 526.9111)" class="st3 st4">Animalia</text>
<g transform="translate(613.3333333333334,175.13513513513516)">
	<circle class="st2" cx="-33" cy="22" r="4"/>
	<text transform="matrix(1 0 0 1 -85.5101 24.7042)" class="st3 st4">Mammalia</text>
</g>
<g transform="translate(920,9.72972972972973)">
	<circle class="st2" cx="-63.3" cy="38.9" r="4"/>
	<text transform="matrix(1 0 0 1 -56.1426 41.617)" class="st3 st4">African civet</text>
</g>
<g transform="translate(920,19.45945945945946)">
	<circle class="st2" cx="-63.3" cy="37.9" r="4"/>
	<text transform="matrix(1 0 0 1 -56.1426 40.6216)" class="st3 st4">American bison</text>
</g>
<g transform="translate(920,29.18918918918919)">
	<circle class="st2" cx="-63.3" cy="36.9" r="4"/>
	<text transform="matrix(1 0 0 1 -56.1426 39.6267)" class="st3 st4">Arctic hare</text>
</g>
<g transform="translate(920,38.91891891891892)">
	<circle class="st2" cx="-63.3" cy="35.9" r="4"/>
	<text transform="matrix(1 0 0 1 -56.1426 38.6324)" class="st3 st4">Black Rat</text>
</g>
<g transform="translate(920,48.64864864864865)">
	<circle class="st2" cx="-63.3" cy="34.9" r="4"/>
	<text transform="matrix(1 0 0 1 -56.1426 37.6375)" class="st3 st4">Bowhead Whale</text>
</g>
<g transform="translate(920,58.37837837837838)">
	<circle class="st2" cx="-63.3" cy="33.9" r="4"/>
	<text transform="matrix(1 0 0 1 -56.1426 36.6426)" class="st3 st4">Brown Bear</text>
</g>
<g transform="translate(920,68.10810810810811)">
	<circle class="st2" cx="-63.3" cy="33" r="4"/>
	<text transform="matrix(1 0 0 1 -56.1426 35.6473)" class="st3 st4">Brown-throated sloth</text>
</g>
<g transform="translate(920,77.83783783783784)">
	<circle class="st2" cx="-63.3" cy="32" r="4"/>
	<text transform="matrix(1 0 0 1 -56.1426 34.6524)" class="st3 st4">Common bottlenose dolphin</text>
</g>
<g transform="translate(920,87.56756756756758)">
	<circle class="st2" cx="-63.3" cy="31" r="4"/>
	<text transform="matrix(1 0 0 1 -56.1426 33.658)" class="st3 st4">Dog</text>
</g>
<g transform="translate(920,97.2972972972973)">
	<circle class="st2" cx="-63.3" cy="30" r="4"/>
	<text transform="matrix(1 0 0 1 -56.1426 32.6632)" class="st3 st4">Donkey</text>
</g>
<g transform="translate(920,107.02702702702703)">
	<circle class="st2" cx="-63.3" cy="29" r="4"/>
	<text transform="matrix(1 0 0 1 -56.1426 31.6683)" class="st3 st4">Dugong</text>
</g>
<g transform="translate(920,116.75675675675676)">
	<circle class="st2" cx="-63.3" cy="28" r="4"/>
	<text transform="matrix(1 0 0 1 -56.1426 30.6729)" class="st3 st4">Eastern grey kangaroo</text>
</g>
<g transform="translate(920,126.4864864864865)">
	<circle class="st2" cx="-63.3" cy="27" r="4"/>
	<text transform="matrix(1 0 0 1 -56.1426 29.6781)" class="st3 st4">European rabbit</text>
</g>
<g transform="translate(920,136.21621621621622)">
	<circle class="st2" cx="-63.3" cy="26" r="4"/>
	<text transform="matrix(1 0 0 1 -56.1426 28.6837)" class="st3 st4">Giant Panda</text>
</g>
<g transform="translate(920,145.94594594594597)">
	<circle class="st2" cx="-63.3" cy="25" r="4"/>
	<text transform="matrix(1 0 0 1 -56.1426 27.6888)" class="st3 st4">Giraffe</text>
</g>
<g transform="translate(920,155.67567567567568)">
	<circle class="st2" cx="-63.3" cy="24" r="4"/>
	<text transform="matrix(1 0 0 1 -56.1426 26.694)" class="st3 st4">Goat</text>
</g>
<g transform="translate(920,165.40540540540542)">
	<circle class="st2" cx="-63.3" cy="23" r="4"/>
	<text transform="matrix(1 0 0 1 -56.1426 25.6986)" class="st3 st4">Guinea pig</text>
</g>
<g transform="translate(920,175.13513513513516)">
	<circle class="st2" cx="-63.3" cy="22" r="4"/>
	<text transform="matrix(1 0 0 1 -56.1426 24.7042)" class="st3 st4">Harbor seal</text>
</g>
<g transform="translate(920,184.86486486486484)">
	<circle class="st2" cx="-63.3" cy="21" r="4"/>
	<text transform="matrix(1 0 0 1 -56.1426 23.7089)" class="st3 st4">Hedgehog</text>
</g>
<g transform="translate(920,194.5945945945946)">
	<circle class="st2" cx="-63.3" cy="20" r="4"/>
	<text transform="matrix(1 0 0 1 -56.1426 22.7145)" class="st3 st4">Killer whale</text>
</g>
<g transform="translate(920,204.32432432432432)">
	<circle class="st2" cx="-63.3" cy="19" r="4"/>
	<text transform="matrix(1 0 0 1 -56.1426 21.7191)" class="st3 st4">Koala</text>
</g>
<g transform="translate(920,214.05405405405406)">
	<circle class="st2" cx="-63.3" cy="18" r="4"/>
	<text transform="matrix(1 0 0 1 -56.1426 20.7248)" class="st3 st4">Leopard</text>
</g>
<g transform="translate(920,223.78378378378378)">
	<circle class="st2" cx="-63.3" cy="17" r="4"/>
	<text transform="matrix(1 0 0 1 -56.1426 19.7304)" class="st3 st4">Lion</text>
</g>
<g transform="translate(920,233.51351351351352)">
	<circle class="st2" cx="-63.3" cy="16" r="4"/>
	<text transform="matrix(1 0 0 1 -56.1426 18.735)" class="st3 st4">Llama</text>
</g>
<g transform="translate(920,243.24324324324323)">
	<circle class="st2" cx="-63.3" cy="15" r="4"/>
	<text transform="matrix(1 0 0 1 -56.1426 17.7397)" class="st3 st4">Mink</text>
</g>
<g transform="translate(920,252.972972972973)">
	<circle class="st2" cx="-63.3" cy="14.1" r="4"/>
	<text transform="matrix(1 0 0 1 -56.1426 16.7453)" class="st3 st4">Narwhal</text>
</g>
<g transform="translate(920,262.7027027027027)">
	<circle class="st2" cx="-63.3" cy="13.1" r="4"/>
	<text transform="matrix(1 0 0 1 -56.1426 15.7509)" class="st3 st4">Nine-banded armadillo</text>
</g>
<g transform="translate(920,272.43243243243245)">
	<circle class="st2" cx="-63.3" cy="12.1" r="4"/>
	<text transform="matrix(1 0 0 1 -56.1426 14.7556)" class="st3 st4">Platypus</text>
</g>
<g transform="translate(920,282.16216216216213)">
	<circle class="st2" cx="-63.3" cy="11.1" r="4"/>
	<text transform="matrix(1 0 0 1 -56.1426 13.7602)" class="st3 st4">Reindeer</text>
</g>
<g transform="translate(920,291.89189189189193)">
	<circle class="st2" cx="-63.3" cy="10.1" r="4"/>
	<text transform="matrix(1 0 0 1 -56.1426 12.7658)" class="st3 st4">Roborovski hamster</text>
</g>
<g transform="translate(920,301.6216216216216)">
	<circle class="st2" cx="-63.3" cy="9.1" r="4"/>
	<text transform="matrix(1 0 0 1 -56.1426 11.7705)" class="st3 st4">Spotted Hyena</text>
</g>
<g transform="translate(920,311.35135135135135)">
	<circle class="st2" cx="-63.3" cy="8.1" r="4"/>
	<text transform="matrix(1 0 0 1 -56.1426 10.7761)" class="st3 st4">Tiger</text>
</g>
<g transform="translate(920,321.0810810810811)">
	<circle class="st2" cx="-63.3" cy="7.1" r="4"/>
	<text transform="matrix(1 0 0 1 -56.1426 9.7817)" class="st3 st4">Walrus</text>
</g>
<g transform="translate(920,330.81081081081084)">
	<circle class="st2" cx="-63.3" cy="6.1" r="4"/>
	<text transform="matrix(1 0 0 1 -56.1426 8.7863)" class="st3 st4">Woolly mammoth</text>
</g>
<g transform="translate(920,340.5405405405405)">
	<circle class="st2" cx="-63.3" cy="5.1" r="4"/>
	<text transform="matrix(1 0 0 1 -56.1426 7.791)" class="st3 st4">Zebra</text>
</g>
<g transform="translate(613.3333333333334,379.4594594594594)">
	<circle class="st2" cx="-32" cy="1.1" r="4"/>
	<text transform="matrix(1 0 0 1 -75.9007 3.811)" class="st3 st4">Reptilia</text>
</g>
<g transform="translate(920,360)">
	<circle class="st2" cx="-63.3" cy="3.1" r="4"/>
	<text transform="matrix(1 0 0 1 -56.1426 5.8018)" class="st3 st4">Alligator</text>
</g>
<g transform="translate(920,369.7297297297297)">
	<circle class="st2" cx="-63.3" cy="2.1" r="4"/>
	<text transform="matrix(1 0 0 1 -56.1426 4.8064)" class="st3 st4">Alligator snapping turtle</text>
</g>
<g transform="translate(920,379.4594594594594)">
	<circle class="st2" cx="-63.3" cy="1.1" r="4"/>
	<text transform="matrix(1 0 0 1 -56.1426 3.811)" class="st3 st4">Boa constrictor</text>
</g>
<g transform="translate(920,389.1891891891892)">
	<circle class="st2" cx="-63.3" cy="0.1" r="4"/>
	<text transform="matrix(1 0 0 1 -56.1426 2.8167)" class="st3 st4">Pterodactylus</text>
</g>
<g transform="translate(920,398.9189189189189)">
	<circle class="st2" cx="-63.3" cy="-0.9" r="4"/>
	<text transform="matrix(1 0 0 1 -56.1426 1.8223)" class="st3 st4">Tortoise</text>
</g>
<g transform="translate(613.3333333333334,462.16216216216213)">
	<circle class="st2" cx="-32" cy="-7.3" r="4"/>
	<text transform="matrix(1 0 0 1 -69.7435 -4.6446)" class="st3 st4">Aves</text>
</g>
<g transform="translate(920,418.37837837837833)">
	<circle class="st2" cx="-63.3" cy="-2.9" r="4"/>
	<text transform="matrix(1 0 0 1 -56.1426 -0.1674)" class="st3 st4">Black Woodpecker</text>
</g>
<g transform="translate(920,428.1081081081081)">
	<circle class="st2" cx="-63.3" cy="-3.9" r="4"/>
	<text transform="matrix(1 0 0 1 -56.1426 -1.1628)" class="st3 st4">Cockatoo</text>
</g>
<g transform="translate(920,437.83783783783787)">
	<circle class="st2" cx="-63.3" cy="-4.9" r="4"/>
	<text transform="matrix(1 0 0 1 -56.1426 -2.1572)" class="st3 st4">Common Magpie</text>
</g>
<g transform="translate(920,447.56756756756755)">
	<circle class="st2" cx="-63.3" cy="-5.8" r="4"/>
	<text transform="matrix(1 0 0 1 -56.1426 -3.1525)" class="st3 st4">Dodo</text>
</g>
<g transform="translate(920,457.2972972972973)">
	<circle class="st2" cx="-63.3" cy="-6.8" r="4"/>
	<text transform="matrix(1 0 0 1 -56.1426 -4.1469)" class="st3 st4">Great White Pelican</text>
</g>
<g transform="translate(920,467.02702702702703)">
	<circle class="st2" cx="-63.3" cy="-7.8" r="4"/>
	<text transform="matrix(1 0 0 1 -56.1426 -5.1413)" class="st3 st4">House Sparrow</text>
</g>
<g transform="translate(920,476.7567567567568)">
	<circle class="st2" cx="-63.3" cy="-8.8" r="4"/>
	<text transform="matrix(1 0 0 1 -56.1426 -6.1376)" class="st3 st4">Little Owl</text>
</g>
<g transform="translate(920,486.48648648648646)">
	<circle class="st2" cx="-63.3" cy="-9.8" r="4"/>
	<text transform="matrix(1 0 0 1 -56.1426 -7.132)" class="st3 st4">Ostrich</text>
</g>
<g transform="translate(920,496.2162162162162)">
	<circle class="st2" cx="-63.3" cy="-10.8" r="4"/>
	<text transform="matrix(1 0 0 1 -56.1426 -8.1273)" class="st3 st4">Pacific Gull</text>
</g>
<g transform="translate(920,505.945945945946)">
	<circle class="st2" cx="-63.3" cy="-11.8" r="4"/>
	<text transform="matrix(1 0 0 1 -56.1426 -9.1217)" class="st3 st4">Penguin</text>
</g>
<g transform="translate(613.3333333333334,540)">
	<circle class="st2" cx="-32" cy="-15.3" r="4"/>
	<text transform="matrix(1 0 0 1 -91.2484 -12.6035)" class="st3 st4">Actinopterygii</text>
</g>
<g transform="translate(920,525.4054054054054)">
	<circle class="st2" cx="-63.3" cy="-13.8" r="4"/>
	<text transform="matrix(1 0 0 1 -56.1426 -11.1115)" class="st3 st4">Blowfish</text>
</g>
<g transform="translate(920,535.1351351351351)">
	<circle class="st2" cx="-63.3" cy="-14.8" r="4"/>
	<text transform="matrix(1 0 0 1 -56.1426 -12.1058)" class="st3 st4">Cynoscion nebulosus</text>
</g>
<g transform="translate(920,544.8648648648649)">
	<circle class="st2" cx="-63.3" cy="-15.8" r="4"/>
	<text transform="matrix(1 0 0 1 -56.1426 -13.1002)" class="st3 st4">Lophius piscatorius</text>
</g>
<g transform="translate(920,554.5945945945946)">
	<circle class="st2" cx="-63.3" cy="-16.8" r="4"/>
	<text transform="matrix(1 0 0 1 -56.1426 -14.0956)" class="st3 st4">Scorpionfish</text>
</g>
<g transform="translate(613.3333333333334,598.3783783783783)">
	<circle class="st2" cx="-32" cy="-21.3" r="4"/>
	<text transform="matrix(1 0 0 1 -63.8069 -18.5727)" class="st3 st4">Insecta</text>
</g>
<g transform="translate(920,574.0540540540541)">
	<circle class="st2" cx="-63.3" cy="-18.8" r="4"/>
	<text transform="matrix(1 0 0 1 -56.1426 -16.0863)" class="st3 st4">Chans megastick</text>
</g>
<g transform="translate(920,583.7837837837839)">
	<circle class="st2" cx="-63.3" cy="-19.8" r="4"/>
	<text transform="matrix(1 0 0 1 -56.1426 -17.0807)" class="st3 st4">European wasp</text>
</g>
<g transform="translate(920,593.5135135135135)">
	<circle class="st2" cx="-63.3" cy="-20.8" r="4"/>
	<text transform="matrix(1 0 0 1 -56.1426 -18.075)" class="st3 st4">Firefly</text>
</g>
<g transform="translate(920,603.2432432432432)">
	<circle class="st2" cx="-63.3" cy="-21.8" r="4"/>
	<text transform="matrix(1 0 0 1 -56.1426 -19.0704)" class="st3 st4">Golden Stag Beetle</text>
</g>
<g transform="translate(920,612.9729729729729)">
	<circle class="st2" cx="-63.3" cy="-22.8" r="4"/>
	<text transform="matrix(1 0 0 1 -56.1426 -20.0648)" class="st3 st4">Ringlet Butterfly</text>
</g>
<g transform="translate(920,622.7027027027027)">
	<circle class="st2" cx="-63.3" cy="-23.8" r="4"/>
	<text transform="matrix(1 0 0 1 -56.1426 -21.0601)" class="st3 st4">Weaver ant</text>
</g>
<g transform="translate(613.3333333333334,642.1621621621622)">
	<circle class="st2" cx="-32" cy="-25.7" r="4"/>
	<text transform="matrix(1 0 0 1 -90.6937 -23.0489)" class="st3 st4">Malacostraca</text>
</g>
<g transform="translate(920,642.1621621621622)">
	<circle class="st2" cx="-63.3" cy="-25.7" r="4"/>
	<text transform="matrix(1 0 0 1 -56.1426 -23.0489)" class="st3 st4">Hairy Hermit Crab</text>
</g>
<g transform="translate(613.3333333333334,661.6216216216217)">
	<circle class="st2" cx="-32" cy="-27.7" r="4"/>
	<text transform="matrix(1 0 0 1 -65.9954 -25.0386)" class="st3 st4">Bivalvia</text>
</g>
<g transform="translate(920,661.6216216216217)">
	<circle class="st2" cx="-63.3" cy="-27.7" r="4"/>
	<text transform="matrix(1 0 0 1 -56.1426 -25.0386)" class="st3 st4">Mediterranean mussel</text>
</g>
<g transform="translate(613.3333333333334,685.9459459459459)">
	<circle class="st2" cx="-32" cy="-30.2" r="4"/>
	<text transform="matrix(1 0 0 1 -76.4359 -27.526)" class="st3 st4">Arachnida</text>
</g>
<g transform="translate(920,681.081081081081)">
	<circle class="st2" cx="-63.3" cy="-29.7" r="4"/>
	<text transform="matrix(1 0 0 1 -56.1426 -27.0293)" class="st3 st4">Tarantula</text>
</g>
<g transform="translate(920,690.8108108108108)">
	<circle class="st2" cx="-63.3" cy="-30.7" r="4"/>
	<text transform="matrix(1 0 0 1 -56.1426 -28.0237)" class="st3 st4">russet mite</text>
</g>
<g transform="translate(613.3333333333334,710.2702702702703)">
	<circle class="st2" cx="-32" cy="-32.7" r="4"/>
	<text transform="matrix(1 0 0 1 -81.9183 -30.0134)" class="st3 st4">Chelicerata</text>
</g>
<g transform="translate(920,710.2702702702703)">
	<circle class="st2" cx="-63.3" cy="-32.7" r="4"/>
	<text transform="matrix(1 0 0 1 -56.1426 -30.0134)" class="st3 st4">giant forest scorpions</text>
</g>
</svg>
