<svg width="800" height="600" xmlns="http://www.w3.org/2000/svg" version="1.1"><g transform="translate(50,0)"><text x="-50" y="23" style="font-size: 10px; font-family: Arial, Helvetica;">South America</text><g class="y axis" transform="translate(0,30)" style="font-size: 10px; font-family: Arial, Helvetica;"><g class="tick" transform="translate(0,550)" style="opacity: 1;"><line x2="-6" y2="0" style="shape-rendering: crispEdges; fill: none; stroke: rgb(204, 204, 204);"></line><text dy=".32em" x="-9" y="0" style="text-anchor: end;">0</text></g><g class="tick" transform="translate(0,527.021722827665)" style="opacity: 1;"><line x2="-6" y2="0" style="shape-rendering: crispEdges; fill: none; stroke: rgb(204, 204, 204);"></line><text dy=".32em" x="-9" y="0" style="text-anchor: end;">500,000</text></g><g class="tick" transform="translate(0,504.04344565533)" style="opacity: 1;"><line x2="-6" y2="0" style="shape-rendering: crispEdges; fill: none; stroke: rgb(204, 204, 204);"></line><text dy=".32em" x="-9" y="0" style="text-anchor: end;">1,000,000</text></g><g class="tick" transform="translate(0,481.06516848299503)" style="opacity: 1;"><line x2="-6" y2="0" style="shape-rendering: crispEdges; fill: none; stroke: rgb(204, 204, 204);"></line><text dy=".32em" x="-9" y="0" style="text-anchor: end;">1,500,000</text></g><g class="tick" transform="translate(0,458.08689131066006)" style="opacity: 1;"><line x2="-6" y2="0" style="shape-rendering: crispEdges; fill: none; stroke: rgb(204, 204, 204);"></line><text dy=".32em" x="-9" y="0" style="text-anchor: end;">2,000,000</text></g><g class="tick" transform="translate(0,435.10861413832504)" style="opacity: 1;"><line x2="-6" y2="0" style="shape-rendering: crispEdges; fill: none; stroke: rgb(204, 204, 204);"></line><text dy=".32em" x="-9" y="0" style="text-anchor: end;">2,500,000</text></g><g class="tick" transform="translate(0,412.13033696599007)" style="opacity: 1;"><line x2="-6" y2="0" style="shape-rendering: crispEdges; fill: none; stroke: rgb(204, 204, 204);"></line><text dy=".32em" x="-9" y="0" style="text-anchor: end;">3,000,000</text></g><g class="tick" transform="translate(0,389.15205979365504)" style="opacity: 1;"><line x2="-6" y2="0" style="shape-rendering: crispEdges; fill: none; stroke: rgb(204, 204, 204);"></line><text dy=".32em" x="-9" y="0" style="text-anchor: end;">3,500,000</text></g><g class="tick" transform="translate(0,366.1737826213201)" style="opacity: 1;"><line x2="-6" y2="0" style="shape-rendering: crispEdges; fill: none; stroke: rgb(204, 204, 204);"></line><text dy=".32em" x="-9" y="0" style="text-anchor: end;">4,000,000</text></g><g class="tick" transform="translate(0,343.19550544898505)" style="opacity: 1;"><line x2="-6" y2="0" style="shape-rendering: crispEdges; fill: none; stroke: rgb(204, 204, 204);"></line><text dy=".32em" x="-9" y="0" style="text-anchor: end;">4,500,000</text></g><g class="tick" transform="translate(0,320.21722827665013)" style="opacity: 1;"><line x2="-6" y2="0" style="shape-rendering: crispEdges; fill: none; stroke: rgb(204, 204, 204);"></line><text dy=".32em" x="-9" y="0" style="text-anchor: end;">5,000,000</text></g><g class="tick" transform="translate(0,297.23895110431505)" style="opacity: 1;"><line x2="-6" y2="0" style="shape-rendering: crispEdges; fill: none; stroke: rgb(204, 204, 204);"></line><text dy=".32em" x="-9" y="0" style="text-anchor: end;">5,500,000</text></g><g class="tick" transform="translate(0,274.26067393198014)" style="opacity: 1;"><line x2="-6" y2="0" style="shape-rendering: crispEdges; fill: none; stroke: rgb(204, 204, 204);"></line><text dy=".32em" x="-9" y="0" style="text-anchor: end;">6,000,000</text></g><g class="tick" transform="translate(0,251.28239675964517)" style="opacity: 1;"><line x2="-6" y2="0" style="shape-rendering: crispEdges; fill: none; stroke: rgb(204, 204, 204);"></line><text dy=".32em" x="-9" y="0" style="text-anchor: end;">6,500,000</text></g><g class="tick" transform="translate(0,228.3041195873101)" style="opacity: 1;"><line x2="-6" y2="0" style="shape-rendering: crispEdges; fill: none; stroke: rgb(204, 204, 204);"></line><text dy=".32em" x="-9" y="0" style="text-anchor: end;">7,000,000</text></g><g class="tick" transform="translate(0,205.3258424149751)" style="opacity: 1;"><line x2="-6" y2="0" style="shape-rendering: crispEdges; fill: none; stroke: rgb(204, 204, 204);"></line><text dy=".32em" x="-9" y="0" style="text-anchor: end;">7,500,000</text></g><g class="tick" transform="translate(0,182.34756524264014)" style="opacity: 1;"><line x2="-6" y2="0" style="shape-rendering: crispEdges; fill: none; stroke: rgb(204, 204, 204);"></line><text dy=".32em" x="-9" y="0" style="text-anchor: end;">8,000,000</text></g><g class="tick" transform="translate(0,159.36928807030515)" style="opacity: 1;"><line x2="-6" y2="0" style="shape-rendering: crispEdges; fill: none; stroke: rgb(204, 204, 204);"></line><text dy=".32em" x="-9" y="0" style="text-anchor: end;">8,500,000</text></g><g class="tick" transform="translate(0,136.39101089797015)" style="opacity: 1;"><line x2="-6" y2="0" style="shape-rendering: crispEdges; fill: none; stroke: rgb(204, 204, 204);"></line><text dy=".32em" x="-9" y="0" style="text-anchor: end;">9,000,000</text></g><g class="tick" transform="translate(0,113.41273372563518)" style="opacity: 1;"><line x2="-6" y2="0" style="shape-rendering: crispEdges; fill: none; stroke: rgb(204, 204, 204);"></line><text dy=".32em" x="-9" y="0" style="text-anchor: end;">9,500,000</text></g><g class="tick" transform="translate(0,90.43445655330018)" style="opacity: 1;"><line x2="-6" y2="0" style="shape-rendering: crispEdges; fill: none; stroke: rgb(204, 204, 204);"></line><text dy=".32em" x="-9" y="0" style="text-anchor: end;">10,000,000</text></g><g class="tick" transform="translate(0,67.4561793809652)" style="opacity: 1;"><line x2="-6" y2="0" style="shape-rendering: crispEdges; fill: none; stroke: rgb(204, 204, 204);"></line><text dy=".32em" x="-9" y="0" style="text-anchor: end;">10,500,000</text></g><g class="tick" transform="translate(0,44.47790220863021)" style="opacity: 1;"><line x2="-6" y2="0" style="shape-rendering: crispEdges; fill: none; stroke: rgb(204, 204, 204);"></line><text dy=".32em" x="-9" y="0" style="text-anchor: end;">11,000,000</text></g><g class="tick" transform="translate(0,21.49962503629522)" style="opacity: 1;"><line x2="-6" y2="0" style="shape-rendering: crispEdges; fill: none; stroke: rgb(204, 204, 204);"></line><text dy=".32em" x="-9" y="0" style="text-anchor: end;">11,500,000</text></g><path class="domain" d="M-6,0H0V550H-6" style="shape-rendering: crispEdges; fill: none; stroke: rgb(204, 204, 204);"></path></g><rect transform="translate(0,30)" class="bar" x="4" width="68" y="430.9179278607433" height="119.0820721392567" style="fill: rgb(191, 105, 105);"></rect><rect transform="translate(0,30)" class="bar" x="79" width="68" y="416.0444566995256" height="133.9555433004744" style="fill: rgb(191, 156, 105);"></rect><rect transform="translate(0,30)" class="bar" x="154" width="68" y="415.756906538991" height="134.24309346100898" style="fill: rgb(174, 191, 105);"></rect><rect transform="translate(0,30)" class="bar" x="229" width="68" y="409.6364126313678" height="140.36358736863218" style="fill: rgb(122, 191, 105);"></rect><rect transform="translate(0,30)" class="bar" x="304" width="68" y="398.80817525323107" height="151.19182474676893" style="fill: rgb(105, 191, 139);"></rect><rect transform="translate(0,30)" class="bar" x="379" width="68" y="296.9042954755772" height="253.09570452442279" style="fill: rgb(105, 191, 191);"></rect><rect transform="translate(0,30)" class="bar" x="454" width="68" y="252.35635547812572" height="297.6436445218743" style="fill: rgb(105, 139, 191);"></rect><rect transform="translate(0,30)" class="bar" x="529" width="68" y="188.67683977665118" height="361.32316022334885" style="fill: rgb(122, 105, 191);"></rect><rect transform="translate(0,30)" class="bar" x="604" width="68" y="141.2434715581152" height="408.7565284418848" style="fill: rgb(174, 105, 191);"></rect><rect transform="translate(0,30)" class="bar" x="679" width="68" y="0" height="550" style="fill: rgb(191, 105, 156);"></rect></g><g class="x axis" transform="translate(50,580)" style="font-size: 10px; font-family: Arial, Helvetica;"><g class="tick" transform="translate(38,0)" style="opacity: 1;"><line y2="6" x2="0" style="shape-rendering: crispEdges; fill: none; stroke: rgb(204, 204, 204);"></line><text dy=".71em" y="9" x="0" style="text-anchor: middle;">2591188</text></g><g class="tick" transform="translate(113,0)" style="opacity: 1;"><line y2="6" x2="0" style="shape-rendering: crispEdges; fill: none; stroke: rgb(204, 204, 204);"></line><text dy=".71em" y="9" x="0" style="text-anchor: middle;">2914830</text></g><g class="tick" transform="translate(188,0)" style="opacity: 1;"><line y2="6" x2="0" style="shape-rendering: crispEdges; fill: none; stroke: rgb(204, 204, 204);"></line><text dy=".71em" y="9" x="0" style="text-anchor: middle;">2921087</text></g><g class="tick" transform="translate(263,0)" style="opacity: 1;"><line y2="6" x2="0" style="shape-rendering: crispEdges; fill: none; stroke: rgb(204, 204, 204);"></line><text dy=".71em" y="9" x="0" style="text-anchor: middle;">3054267</text></g><g class="tick" transform="translate(338,0)" style="opacity: 1;"><line y2="6" x2="0" style="shape-rendering: crispEdges; fill: none; stroke: rgb(204, 204, 204);"></line><text dy=".71em" y="9" x="0" style="text-anchor: middle;">3289886</text></g><g class="tick" transform="translate(413,0)" style="opacity: 1;"><line y2="6" x2="0" style="shape-rendering: crispEdges; fill: none; stroke: rgb(204, 204, 204);"></line><text dy=".71em" y="9" x="0" style="text-anchor: middle;">5507282</text></g><g class="tick" transform="translate(488,0)" style="opacity: 1;"><line y2="6" x2="0" style="shape-rendering: crispEdges; fill: none; stroke: rgb(204, 204, 204);"></line><text dy=".71em" y="9" x="0" style="text-anchor: middle;">6476631</text></g><g class="tick" transform="translate(563,0)" style="opacity: 1;"><line y2="6" x2="0" style="shape-rendering: crispEdges; fill: none; stroke: rgb(204, 204, 204);"></line><text dy=".71em" y="9" x="0" style="text-anchor: middle;">7862277</text></g><g class="tick" transform="translate(638,0)" style="opacity: 1;"><line y2="6" x2="0" style="shape-rendering: crispEdges; fill: none; stroke: rgb(204, 204, 204);"></line><text dy=".71em" y="9" x="0" style="text-anchor: middle;">8894412</text></g><g class="tick" transform="translate(713,0)" style="opacity: 1;"><line y2="6" x2="0" style="shape-rendering: crispEdges; fill: none; stroke: rgb(204, 204, 204);"></line><text dy=".71em" y="9" x="0" style="text-anchor: middle;">11967825</text></g><path class="domain" d="M0,6V0H750V6" style="shape-rendering: crispEdges; fill: none; stroke: rgb(204, 204, 204);"></path></g></svg>