<?xml version="1.0" encoding="utf-8"?>
<!-- Generator: Adobe Illustrator 19.2.0, SVG Export Plug-In . SVG Version: 6.00 Build 0)  -->
<svg version="1.1" id="Layer_1" xmlns="http://www.w3.org/2000/svg" xmlns:xlink="http://www.w3.org/1999/xlink" x="0px" y="0px"
	 viewBox="0 0 847 500" style="enable-background:new 0 0 847 500;" xml:space="preserve">
<style type="text/css">
	.st0{fill:none;stroke:#CCCCCC;}
	.st1{font-family:'FranklinGothic-Medium';}
	.st2{font-size:10px;}
	.st3{fill:#BF6969;fill-opacity:0.9;}
	.st4{fill:#BF7769;fill-opacity:0.9;}
	.st5{fill:#BF8669;fill-opacity:0.9;}
	.st6{fill:#BF9469;fill-opacity:0.9;}
	.st7{fill:#BFA269;fill-opacity:0.9;}
	.st8{fill:#BFB069;fill-opacity:0.9;}
	.st9{fill:#BFBF69;fill-opacity:0.9;}
	.st10{fill:#B0BF69;fill-opacity:0.9;}
	.st11{fill:#A2BF69;fill-opacity:0.9;}
	.st12{fill:#94BF69;fill-opacity:0.9;}
	.st13{fill:#86BF69;fill-opacity:0.9;}
	.st14{fill:#77BF69;fill-opacity:0.9;}
	.st15{fill:#69BF69;fill-opacity:0.9;}
	.st16{fill:#69BF77;fill-opacity:0.9;}
	.st17{fill:#69BF86;fill-opacity:0.9;}
	.st18{fill:#69BF94;fill-opacity:0.9;}
	.st19{fill:#69BFA2;fill-opacity:0.9;}
	.st20{fill:#69BFB0;fill-opacity:0.9;}
	.st21{fill:#69BFBF;fill-opacity:0.9;}
	.st22{fill:#69B0BF;fill-opacity:0.9;}
	.st23{fill:#69A2BF;fill-opacity:0.9;}
	.st24{fill:#6994BF;fill-opacity:0.9;}
	.st25{fill:#6986BF;fill-opacity:0.9;}
	.st26{fill:#6977BF;fill-opacity:0.9;}
	.st27{fill:#6969BF;fill-opacity:0.9;}
	.st28{fill:#7769BF;fill-opacity:0.9;}
	.st29{fill:#8669BF;fill-opacity:0.9;}
	.st30{fill:#9469BF;fill-opacity:0.9;}
	.st31{fill:#A269BF;fill-opacity:0.9;}
	.st32{fill:#B069BF;fill-opacity:0.9;}
	.st33{fill:#BF69BF;fill-opacity:0.9;}
	.st34{fill:#BF69B0;fill-opacity:0.9;}
	.st35{fill:#BF69A2;fill-opacity:0.9;}
	.st36{fill:#BF6994;fill-opacity:0.9;}
	.st37{fill:#BF6986;fill-opacity:0.9;}
	.st38{fill:#BF6977;fill-opacity:0.9;}
</style>
<line class="st0" x1="151.8" y1="460" x2="151.8" y2="20"/>
<text transform="matrix(1 0 0 1 133.6967 470.1)" class="st1 st2">500,000</text>
<g transform="translate(237.85183101920543,0)">
	<line class="st0" x1="0" y1="460" x2="0" y2="20"/>
	<text transform="matrix(1 0 0 1 -22.2437 470.1)" class="st1 st2">1,000,000</text>
</g>
<g transform="translate(323.93320713627156,0)">
	<line class="st0" x1="0" y1="460" x2="0" y2="20"/>
	<text transform="matrix(1 0 0 1 -22.2437 470.1)" class="st1 st2">1,500,000</text>
</g>
<g transform="translate(410.0145832533378,0)">
	<line class="st0" x1="0" y1="460" x2="0" y2="20"/>
	<text transform="matrix(1 0 0 1 -22.2437 470.1)" class="st1 st2">2,000,000</text>
</g>
<g transform="translate(496.0959593704039,0)">
	<line class="st0" x1="0" y1="460" x2="0" y2="20"/>
	<text transform="matrix(1 0 0 1 -22.2437 470.1)" class="st1 st2">2,500,000</text>
</g>
<g transform="translate(582.17733548747,0)">
	<line class="st0" x1="0" y1="460" x2="0" y2="20"/>
	<text transform="matrix(1 0 0 1 -22.2437 470.1)" class="st1 st2">3,000,000</text>
</g>
<g transform="translate(668.2587116045362,0)">
	<line class="st0" x1="0" y1="460" x2="0" y2="20"/>
	<text transform="matrix(1 0 0 1 -22.2437 470.1)" class="st1 st2">3,500,000</text>
</g>
<g transform="translate(754.3400877216023,0)">
	<line class="st0" x1="0" y1="460" x2="0" y2="20"/>
	<text transform="matrix(1 0 0 1 -22.2437 470.1)" class="st1 st2">4,000,000</text>
</g>
<path class="st0" d="M73.3,20v440H827V20"/>
<g transform="translate(73.28231697235955,0)">
	<line class="st0" x1="0" y1="400.1" x2="753.7" y2="400.1"/>
	<text transform="matrix(1 0 0 1 -47.4873 403.2723)" class="st1 st2">2,000,000</text>
	<g transform="translate(0,336.1025957891936)">
		<line class="st0" x1="0" y1="0" x2="753.7" y2="0"/>
		<text transform="matrix(1 0 0 1 -47.4873 3.2)" class="st1 st2">4,000,000</text>
	</g>
	<g transform="translate(0,272.13288254070255)">
		<line class="st0" x1="0" y1="0" x2="753.7" y2="0"/>
		<text transform="matrix(1 0 0 1 -47.4873 3.2)" class="st1 st2">6,000,000</text>
	</g>
	<g transform="translate(0,208.16316929221148)">
		<line class="st0" x1="0" y1="0" x2="753.7" y2="0"/>
		<text transform="matrix(1 0 0 1 -47.4873 3.2)" class="st1 st2">8,000,000</text>
	</g>
	<g transform="translate(0,144.1934560437204)">
		<line class="st0" x1="0" y1="0" x2="753.7" y2="0"/>
		<text transform="matrix(1 0 0 1 -53.0488 3.2)" class="st1 st2">10,000,000</text>
	</g>
	<g transform="translate(0,80.2237427952293)">
		<line class="st0" x1="0" y1="0" x2="753.7" y2="0"/>
		<text transform="matrix(1 0 0 1 -53.0488 3.2)" class="st1 st2">12,000,000</text>
	</g>
	<path class="st0" d="M753.7,20H0v440h753.7"/>
</g>
<g>
	<circle class="st3" cx="89.3" cy="455.6" r="4.4"/>
</g>
<g>
	<circle class="st4" cx="131.8" cy="432" r="5"/>
</g>
<g>
	<circle class="st5" cx="87.8" cy="454.4" r="1.8"/>
</g>
<g>
	<circle class="st6" cx="85.3" cy="450.9" r="1.4"/>
</g>
<g>
	<circle class="st7" cx="176.7" cy="413.5" r="7.4"/>
</g>
<g>
	<circle class="st8" cx="153.8" cy="424.2" r="3.7"/>
</g>
<g>
	<circle class="st9" cx="827" cy="303.7" r="20"/>
</g>
<g>
	<circle class="st10" cx="91.9" cy="457.2" r="3.9"/>
</g>
<g>
	<circle class="st11" cx="77.1" cy="455.6" r="2.6"/>
</g>
<g>
	<circle class="st12" cx="155.4" cy="391.4" r="4.8"/>
</g>
<g>
	<circle class="st13" cx="252.4" cy="376.3" r="3.7"/>
</g>
<g>
	<circle class="st14" cx="73.3" cy="457.8" r="1.9"/>
</g>
<g>
	<circle class="st15" cx="156.6" cy="426.8" r="12.3"/>
</g>
<g>
	<circle class="st16" cx="137.4" cy="453" r="7.4"/>
</g>
<g>
	<circle class="st17" cx="93.8" cy="457.8" r="4.4"/>
</g>
<g>
	<circle class="st18" cx="155.2" cy="413.3" r="4.3"/>
</g>
<g>
	<circle class="st19" cx="284.2" cy="358.6" r="4.9"/>
</g>
<g>
	<circle class="st20" cx="141.2" cy="438.6" r="4.5"/>
</g>
<g>
	<circle class="st21" cx="101.6" cy="443.8" r="3.3"/>
</g>
<g>
	<circle class="st22" cx="91.1" cy="454" r="6.6"/>
</g>
<g>
	<circle class="st23" cx="99.4" cy="454.4" r="2.5"/>
</g>
<g>
	<circle class="st24" cx="97.6" cy="452.9" r="2.9"/>
</g>
<g>
	<circle class="st25" cx="180.8" cy="428.3" r="5.6"/>
</g>
<g>
	<circle class="st26" cx="152.4" cy="456.6" r="2.6"/>
</g>
<g>
	<circle class="st27" cx="84.3" cy="456.8" r="2"/>
</g>
<g>
	<circle class="st28" cx="162.8" cy="438" r="4.1"/>
</g>
<g>
	<circle class="st29" cx="124.3" cy="431.4" r="4.5"/>
</g>
<g>
	<circle class="st30" cx="91.6" cy="451.3" r="2.1"/>
</g>
<g>
	<circle class="st31" cx="99.6" cy="447.9" r="2.1"/>
</g>
<g>
	<circle class="st32" cx="93.5" cy="453.2" r="1.8"/>
</g>
<g>
	<circle class="st33" cx="88" cy="457.6" r="4.7"/>
</g>
<g>
	<circle class="st34" cx="104.7" cy="447.8" r="5.5"/>
</g>
<g>
	<circle class="st35" cx="108.3" cy="458.7" r="1.2"/>
</g>
<g>
	<circle class="st36" cx="172.2" cy="390.3" r="3"/>
</g>
<g>
	<circle class="st37" cx="638.5" cy="20" r="9.4"/>
</g>
<g>
	<circle class="st38" cx="78.3" cy="460" r="2.1"/>
</g>
<g>
	<circle cx="89.3" cy="455.6" r="1"/>
</g>
<g>
	<circle cx="131.8" cy="432" r="1"/>
</g>
<g>
	<circle cx="87.8" cy="454.4" r="1"/>
</g>
<g>
	<circle cx="85.3" cy="450.9" r="1"/>
</g>
<g>
	<circle cx="176.7" cy="413.5" r="1"/>
</g>
<g>
	<circle cx="153.8" cy="424.2" r="1"/>
</g>
<g>
	<circle cx="827" cy="303.7" r="1"/>
</g>
<g>
	<circle cx="91.9" cy="457.2" r="1"/>
</g>
<g>
	<circle cx="77.1" cy="455.6" r="1"/>
</g>
<g>
	<circle cx="155.4" cy="391.4" r="1"/>
</g>
<g>
	<circle cx="252.4" cy="376.3" r="1"/>
</g>
<g>
	<circle cx="73.3" cy="457.8" r="1"/>
</g>
<g>
	<circle cx="156.6" cy="426.8" r="1"/>
</g>
<g>
	<circle cx="137.4" cy="453" r="1"/>
</g>
<g>
	<circle cx="93.8" cy="457.8" r="1"/>
</g>
<g>
	<circle cx="155.2" cy="413.3" r="1"/>
</g>
<g>
	<circle cx="284.2" cy="358.6" r="1"/>
</g>
<g>
	<circle cx="141.2" cy="438.6" r="1"/>
</g>
<g>
	<circle cx="101.6" cy="443.8" r="1"/>
</g>
<g>
	<circle cx="91.1" cy="454" r="1"/>
</g>
<g>
	<circle cx="99.4" cy="454.4" r="1"/>
</g>
<g>
	<circle cx="97.6" cy="452.9" r="1"/>
</g>
<g>
	<circle cx="180.8" cy="428.3" r="1"/>
</g>
<g>
	<circle cx="152.4" cy="456.6" r="1"/>
</g>
<g>
	<circle cx="84.3" cy="456.8" r="1"/>
</g>
<g>
	<circle cx="162.8" cy="438" r="1"/>
</g>
<g>
	<circle cx="124.3" cy="431.4" r="1"/>
</g>
<g>
	<circle cx="91.6" cy="451.3" r="1"/>
</g>
<g>
	<circle cx="99.6" cy="447.9" r="1"/>
</g>
<g>
	<circle cx="93.5" cy="453.2" r="1"/>
</g>
<g>
	<circle cx="88" cy="457.6" r="1"/>
</g>
<g>
	<circle cx="104.7" cy="447.8" r="1"/>
</g>
<g>
	<circle cx="108.3" cy="458.7" r="1"/>
</g>
<g>
	<circle cx="172.2" cy="390.3" r="1"/>
</g>
<g>
	<circle cx="638.5" cy="20" r="1"/>
</g>
<g>
	<circle cx="78.3" cy="460" r="1"/>
</g>
</svg>
