<svg width="847" height="520" xmlns="http://www.w3.org/2000/svg" version="1.1"><g transform="translate(0,10)"><g><path class="link" d="M5,216.66666666666666C423.5,216.66666666666666 423.5,16.666666666666693 842,16.666666666666693" style="stroke-width: 13.3333; fill: none; stroke: rgb(230, 193, 0); stroke-opacity: 0.4;"><title>0.16</title></path><path class="link" d="M5,307.9166666666667C423.5,307.9166666666667 423.5,28.75000000000002 842,28.75000000000002" style="stroke-width: 10.8333; fill: none; stroke: rgb(105, 191, 139); stroke-opacity: 0.4;"><title>0.13</title></path><path class="link" d="M5,130C423.5,130 423.5,49.16666666666669 842,49.16666666666669" style="stroke-width: 10; fill: none; stroke: rgb(240, 16, 16); stroke-opacity: 0.4;"><title>0.12</title></path><path class="link" d="M5,120C423.5,120 423.5,5.0000000000000275 842,5.0000000000000275" style="stroke-width: 10; fill: none; stroke: rgb(240, 16, 16); stroke-opacity: 0.4;"><title>0.12</title></path><path class="link" d="M5,239.16666666666666C423.5,239.16666666666666 423.5,116.66666666666669 842,116.66666666666669" style="stroke-width: 8.33333; fill: none; stroke: rgb(230, 193, 0); stroke-opacity: 0.4;"><title>0.1</title></path><path class="link" d="M5,139.16666666666666C423.5,139.16666666666666 423.5,80.83333333333336 842,80.83333333333336" style="stroke-width: 8.33333; fill: none; stroke: rgb(240, 16, 16); stroke-opacity: 0.4;"><title>0.1</title></path><path class="link" d="M5,158.33333333333331C423.5,158.33333333333331 423.5,168.33333333333334 842,168.33333333333334" style="stroke-width: 8.33333; fill: none; stroke: rgb(240, 16, 16); stroke-opacity: 0.4;"><title>0.1</title></path><path class="link" d="M5,335.4166666666667C423.5,335.4166666666667 423.5,150.41666666666669 842,150.41666666666669" style="stroke-width: 7.5; fill: none; stroke: rgb(105, 191, 139); stroke-opacity: 0.4;"><title>0.09</title></path><path class="link" d="M5,342.49999999999994C423.5,342.49999999999994 423.5,178.33333333333337 842,178.33333333333337" style="stroke-width: 6.66667; fill: none; stroke: rgb(105, 191, 139); stroke-opacity: 0.4;"><title>0.08</title></path><path class="link" d="M5,316.66666666666663C423.5,316.66666666666663 423.5,63.33333333333336 842,63.33333333333336" style="stroke-width: 6.66667; fill: none; stroke: rgb(105, 191, 139); stroke-opacity: 0.4;"><title>0.08</title></path><path class="link" d="M5,259.5833333333333C423.5,259.5833333333333 423.5,224.58333333333331 842,224.58333333333331" style="stroke-width: 5.83333; fill: none; stroke: rgb(230, 193, 0); stroke-opacity: 0.4;"><title>0.07</title></path><path class="link" d="M5,174.58333333333331C423.5,174.58333333333331 423.5,245.41666666666666 842,245.41666666666666" style="stroke-width: 5.83333; fill: none; stroke: rgb(240, 16, 16); stroke-opacity: 0.4;"><title>0.07</title></path><path class="link" d="M5,232.08333333333331C423.5,232.08333333333331 423.5,87.91666666666669 842,87.91666666666669" style="stroke-width: 5.83333; fill: none; stroke: rgb(230, 193, 0); stroke-opacity: 0.4;"><title>0.07</title></path><path class="link" d="M5,146.24999999999997C423.5,146.24999999999997 423.5,109.58333333333336 842,109.58333333333336" style="stroke-width: 5.83333; fill: none; stroke: rgb(240, 16, 16); stroke-opacity: 0.4;"><title>0.07</title></path><path class="link" d="M5,253.74999999999997C423.5,253.74999999999997 423.5,199.58333333333334 842,199.58333333333334" style="stroke-width: 5.83333; fill: none; stroke: rgb(230, 193, 0); stroke-opacity: 0.4;"><title>0.07</title></path><path class="link" d="M5,322.9166666666667C423.5,322.9166666666667 423.5,93.75000000000001 842,93.75000000000001" style="stroke-width: 5.83333; fill: none; stroke: rgb(105, 191, 139); stroke-opacity: 0.4;"><title>0.07</title></path><path class="link" d="M5,328.75C423.5,328.75 423.5,123.75000000000001 842,123.75000000000001" style="stroke-width: 5.83333; fill: none; stroke: rgb(105, 191, 139); stroke-opacity: 0.4;"><title>0.07</title></path><path class="link" d="M5,226.25C423.5,226.25 423.5,57.08333333333336 842,57.08333333333336" style="stroke-width: 5.83333; fill: none; stroke: rgb(230, 193, 0); stroke-opacity: 0.4;"><title>0.07</title></path><path class="link" d="M5,365C423.5,365 423.5,292.5 842,292.5" style="stroke-width: 5; fill: none; stroke: rgb(105, 191, 139); stroke-opacity: 0.4;"><title>0.06</title></path><path class="link" d="M5,245.83333333333331C423.5,245.83333333333331 423.5,144.16666666666669 842,144.16666666666669" style="stroke-width: 5; fill: none; stroke: rgb(230, 193, 0); stroke-opacity: 0.4;"><title>0.06</title></path><path class="link" d="M5,165C423.5,165 423.5,194.16666666666669 842,194.16666666666669" style="stroke-width: 5; fill: none; stroke: rgb(240, 16, 16); stroke-opacity: 0.4;"><title>0.06</title></path><path class="link" d="M5,151.66666666666666C423.5,151.66666666666666 423.5,139.16666666666669 842,139.16666666666669" style="stroke-width: 5; fill: none; stroke: rgb(240, 16, 16); stroke-opacity: 0.4;"><title>0.06</title></path><path class="link" d="M5,353.3333333333333C423.5,353.3333333333333 423.5,230 842,230" style="stroke-width: 5; fill: none; stroke: rgb(105, 191, 139); stroke-opacity: 0.4;"><title>0.06</title></path><path class="link" d="M5,348.3333333333333C423.5,348.3333333333333 423.5,205.00000000000003 842,205.00000000000003" style="stroke-width: 5; fill: none; stroke: rgb(105, 191, 139); stroke-opacity: 0.4;"><title>0.06</title></path><path class="link" d="M5,169.58333333333334C423.5,169.58333333333334 423.5,219.58333333333334 842,219.58333333333334" style="stroke-width: 4.16667; fill: none; stroke: rgb(240, 16, 16); stroke-opacity: 0.4;"><title>0.05</title></path><path class="link" d="M5,183.74999999999997C423.5,183.74999999999997 423.5,307.0833333333333 842,307.0833333333333" style="stroke-width: 4.16667; fill: none; stroke: rgb(240, 16, 16); stroke-opacity: 0.4;"><title>0.05</title></path><path class="link" d="M5,271.24999999999994C423.5,271.24999999999994 423.5,287.91666666666663 842,287.91666666666663" style="stroke-width: 4.16667; fill: none; stroke: rgb(230, 193, 0); stroke-opacity: 0.4;"><title>0.05</title></path><path class="link" d="M5,267.0833333333333C423.5,267.0833333333333 423.5,269.5833333333333 842,269.5833333333333" style="stroke-width: 4.16667; fill: none; stroke: rgb(230, 193, 0); stroke-opacity: 0.4;"><title>0.05</title></path><path class="link" d="M5,357.5C423.5,357.5 423.5,252.5 842,252.5" style="stroke-width: 3.33333; fill: none; stroke: rgb(105, 191, 139); stroke-opacity: 0.4;"><title>0.04</title></path><path class="link" d="M5,277.5C423.5,277.5 423.5,328.33333333333337 842,328.33333333333337" style="stroke-width: 3.33333; fill: none; stroke: rgb(230, 193, 0); stroke-opacity: 0.4;"><title>0.04</title></path><path class="link" d="M5,360.8333333333333C423.5,360.8333333333333 423.5,273.33333333333337 842,273.33333333333337" style="stroke-width: 3.33333; fill: none; stroke: rgb(105, 191, 139); stroke-opacity: 0.4;"><title>0.04</title></path><path class="link" d="M5,179.16666666666666C423.5,179.16666666666666 423.5,265.83333333333337 842,265.83333333333337" style="stroke-width: 3.33333; fill: none; stroke: rgb(240, 16, 16); stroke-opacity: 0.4;"><title>0.04</title></path><path class="link" d="M5,274.5833333333333C423.5,274.5833333333333 423.5,310.4166666666667 842,310.4166666666667" style="stroke-width: 2.5; fill: none; stroke: rgb(230, 193, 0); stroke-opacity: 0.4;"><title>0.03</title></path><path class="link" d="M5,189.58333333333331C423.5,189.58333333333331 423.5,343.75 842,343.75" style="stroke-width: 2.5; fill: none; stroke: rgb(240, 16, 16); stroke-opacity: 0.4;"><title>0.03</title></path><path class="link" d="M5,249.58333333333331C423.5,249.58333333333331 423.5,173.75000000000003 842,173.75000000000003" style="stroke-width: 2.5; fill: none; stroke: rgb(230, 193, 0); stroke-opacity: 0.4;"><title>0.03</title></path><path class="link" d="M5,368.75C423.5,368.75 423.5,312.9166666666667 842,312.9166666666667" style="stroke-width: 2.5; fill: none; stroke: rgb(105, 191, 139); stroke-opacity: 0.4;"><title>0.03</title></path><path class="link" d="M5,193.75C423.5,193.75 423.5,376.25 842,376.25" style="stroke-width: 2.5; fill: none; stroke: rgb(240, 16, 16); stroke-opacity: 0.4;"><title>0.03</title></path><path class="link" d="M5,282.91666666666663C423.5,282.91666666666663 423.5,362.08333333333337 842,362.08333333333337" style="stroke-width: 2.5; fill: none; stroke: rgb(230, 193, 0); stroke-opacity: 0.4;"><title>0.03</title></path><path class="link" d="M5,371.25C423.5,371.25 423.5,331.25 842,331.25" style="stroke-width: 2.5; fill: none; stroke: rgb(105, 191, 139); stroke-opacity: 0.4;"><title>0.03</title></path><path class="link" d="M5,187.08333333333331C423.5,187.08333333333331 423.5,325.4166666666667 842,325.4166666666667" style="stroke-width: 2.5; fill: none; stroke: rgb(240, 16, 16); stroke-opacity: 0.4;"><title>0.03</title></path><path class="link" d="M5,263.75C423.5,263.75 423.5,249.58333333333334 842,249.58333333333334" style="stroke-width: 2.5; fill: none; stroke: rgb(230, 193, 0); stroke-opacity: 0.4;"><title>0.03</title></path><path class="link" d="M5,280.41666666666663C423.5,280.41666666666663 423.5,346.25 842,346.25" style="stroke-width: 2.5; fill: none; stroke: rgb(230, 193, 0); stroke-opacity: 0.4;"><title>0.03</title></path><path class="link" d="M5,381.66666666666663C423.5,381.66666666666663 423.5,433.3333333333333 842,433.3333333333333" style="stroke-width: 1.66667; fill: none; stroke: rgb(105, 191, 139); stroke-opacity: 0.4;"><title>0.02</title></path><path class="link" d="M5,197.49999999999997C423.5,197.49999999999997 423.5,418.3333333333333 842,418.3333333333333" style="stroke-width: 1.66667; fill: none; stroke: rgb(240, 16, 16); stroke-opacity: 0.4;"><title>0.02</title></path><path class="link" d="M5,378.3333333333333C423.5,378.3333333333333 423.5,393.3333333333333 842,393.3333333333333" style="stroke-width: 1.66667; fill: none; stroke: rgb(105, 191, 139); stroke-opacity: 0.4;"><title>0.02</title></path><path class="link" d="M5,374.99999999999994C423.5,374.99999999999994 423.5,364.1666666666667 842,364.1666666666667" style="stroke-width: 1.66667; fill: none; stroke: rgb(105, 191, 139); stroke-opacity: 0.4;"><title>0.02</title></path><path class="link" d="M5,373.3333333333333C423.5,373.3333333333333 423.5,348.3333333333333 842,348.3333333333333" style="stroke-width: 1.66667; fill: none; stroke: rgb(105, 191, 139); stroke-opacity: 0.4;"><title>0.02</title></path><path class="link" d="M5,285.8333333333333C423.5,285.8333333333333 423.5,391.66666666666663 842,391.66666666666663" style="stroke-width: 1.66667; fill: none; stroke: rgb(230, 193, 0); stroke-opacity: 0.4;"><title>0.02</title></path><path class="link" d="M5,191.66666666666666C423.5,191.66666666666666 423.5,360 842,360" style="stroke-width: 1.66667; fill: none; stroke: rgb(240, 16, 16); stroke-opacity: 0.4;"><title>0.02</title></path><path class="link" d="M5,289.99999999999994C423.5,289.99999999999994 423.5,431.66666666666663 842,431.66666666666663" style="stroke-width: 1.66667; fill: none; stroke: rgb(230, 193, 0); stroke-opacity: 0.4;"><title>0.02</title></path><path class="link" d="M5,384.16666666666663C423.5,384.16666666666663 423.5,456.66666666666663 842,456.66666666666663" style="stroke-width: 1.66667; fill: none; stroke: rgb(105, 191, 139); stroke-opacity: 0.4;"><title>0.02</title></path><path class="link" d="M5,376.66666666666663C423.5,376.66666666666663 423.5,379.16666666666663 842,379.16666666666663" style="stroke-width: 1.66667; fill: none; stroke: rgb(105, 191, 139); stroke-opacity: 0.4;"><title>0.02</title></path><path class="link" d="M5,287.49999999999994C423.5,287.49999999999994 423.5,405.8333333333333 842,405.8333333333333" style="stroke-width: 1.66667; fill: none; stroke: rgb(230, 193, 0); stroke-opacity: 0.4;"><title>0.02</title></path><path class="link" d="M5,195.41666666666666C423.5,195.41666666666666 423.5,390.4166666666667 842,390.4166666666667" style="stroke-width: 1; fill: none; stroke: rgb(240, 16, 16); stroke-opacity: 0.4;"><title>0.01</title></path><path class="link" d="M5,292.0833333333333C423.5,292.0833333333333 423.5,468.75 842,468.75" style="stroke-width: 1; fill: none; stroke: rgb(230, 193, 0); stroke-opacity: 0.4;"><title>0.01</title></path><path class="link" d="M5,288.75C423.5,288.75 423.5,419.58333333333337 842,419.58333333333337" style="stroke-width: 1; fill: none; stroke: rgb(230, 193, 0); stroke-opacity: 0.4;"><title>0.01</title></path><path class="link" d="M5,181.24999999999997C423.5,181.24999999999997 423.5,285.4166666666667 842,285.4166666666667" style="stroke-width: 1; fill: none; stroke: rgb(240, 16, 16); stroke-opacity: 0.4;"><title>0.01</title></path><path class="link" d="M5,380.4166666666667C423.5,380.4166666666667 423.5,420.4166666666667 842,420.4166666666667" style="stroke-width: 1; fill: none; stroke: rgb(105, 191, 139); stroke-opacity: 0.4;"><title>0.01</title></path><path class="link" d="M5,198.74999999999997C423.5,198.74999999999997 423.5,467.9166666666667 842,467.9166666666667" style="stroke-width: 1; fill: none; stroke: rgb(240, 16, 16); stroke-opacity: 0.4;"><title>0.01</title></path><path class="link" d="M5,379.58333333333337C423.5,379.58333333333337 423.5,407.08333333333337 842,407.08333333333337" style="stroke-width: 1; fill: none; stroke: rgb(105, 191, 139); stroke-opacity: 0.4;"><title>0.01</title></path><path class="link" d="M5,196.24999999999997C423.5,196.24999999999997 423.5,404.58333333333337 842,404.58333333333337" style="stroke-width: 1; fill: none; stroke: rgb(240, 16, 16); stroke-opacity: 0.4;"><title>0.01</title></path><path class="link" d="M5,284.5833333333333C423.5,284.5833333333333 423.5,377.9166666666667 842,377.9166666666667" style="stroke-width: 1; fill: none; stroke: rgb(230, 193, 0); stroke-opacity: 0.4;"><title>0.01</title></path><path class="link" d="M5,291.25C423.5,291.25 423.5,444.5833333333333 842,444.5833333333333" style="stroke-width: 1; fill: none; stroke: rgb(230, 193, 0); stroke-opacity: 0.4;"><title>0.01</title></path><path class="link" d="M5,382.9166666666667C423.5,382.9166666666667 423.5,445.41666666666663 842,445.41666666666663" style="stroke-width: 1; fill: none; stroke: rgb(105, 191, 139); stroke-opacity: 0.4;"><title>0.01</title></path><path class="link" d="M5,199.5833333333333C423.5,199.5833333333333 423.5,479.58333333333337 842,479.58333333333337" style="stroke-width: 1; fill: none; stroke: rgb(240, 16, 16); stroke-opacity: 0.4;"><title>0.01</title></path><path class="link" d="M5,198.33333333333331C423.5,198.33333333333331 423.5,455.8333333333333 842,455.8333333333333" style="stroke-width: 1; fill: none; stroke: rgb(240, 16, 16); stroke-opacity: 0.4;"><title>0</title></path><path class="link" d="M5,385C423.5,385 423.5,469.1666666666667 842,469.1666666666667" style="stroke-width: 1; fill: none; stroke: rgb(105, 191, 139); stroke-opacity: 0.4;"><title>0</title></path><path class="link" d="M5,292.5C423.5,292.5 423.5,490 842,490" style="stroke-width: 1; fill: none; stroke: rgb(230, 193, 0); stroke-opacity: 0.4;"><title>0</title></path><path class="link" d="M5,292.5C423.5,292.5 423.5,480 842,480" style="stroke-width: 1; fill: none; stroke: rgb(230, 193, 0); stroke-opacity: 0.4;"><title>0</title></path><path class="link" d="M5,385C423.5,385 423.5,480 842,480" style="stroke-width: 1; fill: none; stroke: rgb(105, 191, 139); stroke-opacity: 0.4;"><title>0</title></path><path class="link" d="M5,198.33333333333331C423.5,198.33333333333331 423.5,444.16666666666663 842,444.16666666666663" style="stroke-width: 1; fill: none; stroke: rgb(240, 16, 16); stroke-opacity: 0.4;"><title>0</title></path><path class="link" d="M5,385C423.5,385 423.5,490 842,490" style="stroke-width: 1; fill: none; stroke: rgb(105, 191, 139); stroke-opacity: 0.4;"><title>0</title></path><path class="link" d="M5,199.99999999999997C423.5,199.99999999999997 423.5,500 842,500" style="stroke-width: 1; fill: none; stroke: rgb(240, 16, 16); stroke-opacity: 0.4;"><title>0</title></path><path class="link" d="M5,385C423.5,385 423.5,500 842,500" style="stroke-width: 1; fill: none; stroke: rgb(105, 191, 139); stroke-opacity: 0.4;"><title>0</title></path><path class="link" d="M5,198.33333333333331C423.5,198.33333333333331 423.5,430.8333333333333 842,430.8333333333333" style="stroke-width: 1; fill: none; stroke: rgb(240, 16, 16); stroke-opacity: 0.4;"><title>0</title></path><path class="link" d="M5,292.5C423.5,292.5 423.5,500 842,500" style="stroke-width: 1; fill: none; stroke: rgb(230, 193, 0); stroke-opacity: 0.4;"><title>0</title></path><path class="link" d="M5,291.66666666666663C423.5,291.66666666666663 423.5,455.8333333333333 842,455.8333333333333" style="stroke-width: 1; fill: none; stroke: rgb(230, 193, 0); stroke-opacity: 0.4;"><title>0</title></path><path class="link" d="M5,199.99999999999997C423.5,199.99999999999997 423.5,490 842,490" style="stroke-width: 1; fill: none; stroke: rgb(240, 16, 16); stroke-opacity: 0.4;"><title>0</title></path></g><g><g class="node" transform="translate(0,302.5)"><rect height="82.49999999999999" width="5"><title>English
1</title></rect><text x="11" y="41.24999999999999" dy=".35em" text-anchor="start" style="font-size: 11px; font-family: Arial, Helvetica; pointer-events: none;">English</text></g><g class="node" transform="translate(0,210)"><rect height="82.5" width="5"><title>German
1</title></rect><text x="11" y="41.25" dy=".35em" text-anchor="start" style="font-size: 11px; font-family: Arial, Helvetica; pointer-events: none;">German</text></g><g class="node" transform="translate(0,115)"><rect height="85" width="5"><title>Italian
1</title></rect><text x="11" y="42.5" dy=".35em" text-anchor="start" style="font-size: 11px; font-family: Arial, Helvetica; pointer-events: none;">Italian</text></g><g class="node" transform="translate(842,44.16666666666669)"><rect height="22.499999999999996" width="5" style="fill: rgb(102, 102, 102);"><title>a
0</title></rect><text x="-6" y="11.249999999999998" dy=".35em" text-anchor="end" style="font-size: 11px; font-family: Arial, Helvetica; pointer-events: none;">a</text></g><g class="node" transform="translate(842,404.1666666666667)"><rect height="3.3333333333333326" width="5" style="fill: rgb(102, 102, 102);"><title>b
0</title></rect><text x="-6" y="1.6666666666666663" dy=".35em" text-anchor="end" style="font-size: 11px; font-family: Arial, Helvetica; pointer-events: none;">b</text></g><g class="node" transform="translate(842,305)"><rect height="9.166666666666664" width="5" style="fill: rgb(102, 102, 102);"><title>c
0</title></rect><text x="-6" y="4.583333333333332" dy=".35em" text-anchor="end" style="font-size: 11px; font-family: Arial, Helvetica; pointer-events: none;">c</text></g><g class="node" transform="translate(842,264.1666666666667)"><rect height="10.83333333333333" width="5" style="fill: rgb(102, 102, 102);"><title>d
0</title></rect><text x="-6" y="5.416666666666665" dy=".35em" text-anchor="end" style="font-size: 11px; font-family: Arial, Helvetica; pointer-events: none;">d</text></g><g class="node" transform="translate(842,2.842170943040401e-14)"><rect height="34.166666666666664" width="5" style="fill: rgb(102, 102, 102);"><title>e
0</title></rect><text x="-6" y="17.083333333333332" dy=".35em" text-anchor="end" style="font-size: 11px; font-family: Arial, Helvetica; pointer-events: none;">e</text></g><g class="node" transform="translate(842,390)"><rect height="4.166666666666666" width="5" style="fill: rgb(102, 102, 102);"><title>f
0</title></rect><text x="-6" y="2.083333333333333" dy=".35em" text-anchor="end" style="font-size: 11px; font-family: Arial, Helvetica; pointer-events: none;">f</text></g><g class="node" transform="translate(842,359.1666666666667)"><rect height="5.833333333333332" width="5" style="fill: rgb(102, 102, 102);"><title>g
0</title></rect><text x="-6" y="2.916666666666666" dy=".35em" text-anchor="end" style="font-size: 11px; font-family: Arial, Helvetica; pointer-events: none;">g</text></g><g class="node" transform="translate(842,285)"><rect height="9.999999999999998" width="5" style="fill: rgb(102, 102, 102);"><title>h
0</title></rect><text x="-6" y="4.999999999999999" dy=".35em" text-anchor="end" style="font-size: 11px; font-family: Arial, Helvetica; pointer-events: none;">h</text></g><g class="node" transform="translate(842,76.66666666666669)"><rect height="19.999999999999996" width="5" style="fill: rgb(102, 102, 102);"><title>i
0</title></rect><text x="-6" y="9.999999999999998" dy=".35em" text-anchor="end" style="font-size: 11px; font-family: Arial, Helvetica; pointer-events: none;">i</text></g><g class="node" transform="translate(842,490)"><rect height="0" width="5" style="fill: rgb(102, 102, 102);"><title>j
0</title></rect><text x="-6" y="0" dy=".35em" text-anchor="end" style="font-size: 11px; font-family: Arial, Helvetica; pointer-events: none;">j</text></g><g class="node" transform="translate(842,444.16666666666663)"><rect height="1.6666666666666663" width="5" style="fill: rgb(102, 102, 102);"><title>k
0</title></rect><text x="-6" y="0.8333333333333331" dy=".35em" text-anchor="end" style="font-size: 11px; font-family: Arial, Helvetica; pointer-events: none;">k</text></g><g class="node" transform="translate(842,242.5)"><rect height="11.666666666666664" width="5" style="fill: rgb(102, 102, 102);"><title>l
0</title></rect><text x="-6" y="5.833333333333332" dy=".35em" text-anchor="end" style="font-size: 11px; font-family: Arial, Helvetica; pointer-events: none;">l</text></g><g class="node" transform="translate(842,342.5)"><rect height="6.666666666666665" width="5" style="fill: rgb(102, 102, 102);"><title>m
0</title></rect><text x="-6" y="3.3333333333333326" dy=".35em" text-anchor="end" style="font-size: 11px; font-family: Arial, Helvetica; pointer-events: none;">m</text></g><g class="node" transform="translate(842,106.66666666666669)"><rect height="19.999999999999996" width="5" style="fill: rgb(102, 102, 102);"><title>n
0</title></rect><text x="-6" y="9.999999999999998" dy=".35em" text-anchor="end" style="font-size: 11px; font-family: Arial, Helvetica; pointer-events: none;">n</text></g><g class="node" transform="translate(842,164.16666666666669)"><rect height="17.499999999999996" width="5" style="fill: rgb(102, 102, 102);"><title>o
0</title></rect><text x="-6" y="8.749999999999998" dy=".35em" text-anchor="end" style="font-size: 11px; font-family: Arial, Helvetica; pointer-events: none;">o</text></g><g class="node" transform="translate(842,375)"><rect height="4.999999999999999" width="5" style="fill: rgb(102, 102, 102);"><title>p
0</title></rect><text x="-6" y="2.4999999999999996" dy=".35em" text-anchor="end" style="font-size: 11px; font-family: Arial, Helvetica; pointer-events: none;">p</text></g><g class="node" transform="translate(842,479.1666666666667)"><rect height="0.8333333333333331" width="5" style="fill: rgb(102, 102, 102);"><title>q
0</title></rect><text x="-6" y="0.4166666666666666" dy=".35em" text-anchor="end" style="font-size: 11px; font-family: Arial, Helvetica; pointer-events: none;">q</text></g><g class="node" transform="translate(842,191.66666666666669)"><rect height="15.83333333333333" width="5" style="fill: rgb(102, 102, 102);"><title>r
0</title></rect><text x="-6" y="7.916666666666665" dy=".35em" text-anchor="end" style="font-size: 11px; font-family: Arial, Helvetica; pointer-events: none;">r</text></g><g class="node" transform="translate(842,217.5)"><rect height="14.999999999999996" width="5" style="fill: rgb(102, 102, 102);"><title>s
0</title></rect><text x="-6" y="7.499999999999998" dy=".35em" text-anchor="end" style="font-size: 11px; font-family: Arial, Helvetica; pointer-events: none;">s</text></g><g class="node" transform="translate(842,136.66666666666669)"><rect height="17.499999999999996" width="5" style="fill: rgb(102, 102, 102);"><title>t
0</title></rect><text x="-6" y="8.749999999999998" dy=".35em" text-anchor="end" style="font-size: 11px; font-family: Arial, Helvetica; pointer-events: none;">t</text></g><g class="node" transform="translate(842,324.1666666666667)"><rect height="8.333333333333332" width="5" style="fill: rgb(102, 102, 102);"><title>u
0</title></rect><text x="-6" y="4.166666666666666" dy=".35em" text-anchor="end" style="font-size: 11px; font-family: Arial, Helvetica; pointer-events: none;">u</text></g><g class="node" transform="translate(842,417.5)"><rect height="3.3333333333333326" width="5" style="fill: rgb(102, 102, 102);"><title>v
0</title></rect><text x="-6" y="1.6666666666666663" dy=".35em" text-anchor="end" style="font-size: 11px; font-family: Arial, Helvetica; pointer-events: none;">v</text></g><g class="node" transform="translate(842,430.8333333333333)"><rect height="3.3333333333333326" width="5" style="fill: rgb(102, 102, 102);"><title>w
0</title></rect><text x="-6" y="1.6666666666666663" dy=".35em" text-anchor="end" style="font-size: 11px; font-family: Arial, Helvetica; pointer-events: none;">w</text></g><g class="node" transform="translate(842,500)"><rect height="0" width="5" style="fill: rgb(102, 102, 102);"><title>x
0</title></rect><text x="-6" y="0" dy=".35em" text-anchor="end" style="font-size: 11px; font-family: Arial, Helvetica; pointer-events: none;">x</text></g><g class="node" transform="translate(842,455.8333333333333)"><rect height="1.6666666666666663" width="5" style="fill: rgb(102, 102, 102);"><title>y
0</title></rect><text x="-6" y="0.8333333333333331" dy=".35em" text-anchor="end" style="font-size: 11px; font-family: Arial, Helvetica; pointer-events: none;">y</text></g><g class="node" transform="translate(842,467.5)"><rect height="1.6666666666666663" width="5" style="fill: rgb(102, 102, 102);"><title>z
0</title></rect><text x="-6" y="0.8333333333333331" dy=".35em" text-anchor="end" style="font-size: 11px; font-family: Arial, Helvetica; pointer-events: none;">z</text></g></g></g></svg>