<?xml version="1.0" encoding="utf-8"?>
<!-- Generator: Adobe Illustrator 19.2.0, SVG Export Plug-In . SVG Version: 6.00 Build 0)  -->
<svg version="1.1" id="Layer_1" xmlns="http://www.w3.org/2000/svg" xmlns:xlink="http://www.w3.org/1999/xlink" x="0px" y="0px"
	 viewBox="0 0 1109 1109" style="enable-background:new 0 0 1109 1109;" xml:space="preserve">
<style type="text/css">
	.st0{opacity:0.9;fill:none;stroke:#9467C9;}
	.st1{fill:#EEEEEE;stroke:#08A9B5;}
	.st2{font-family:'FranklinGothic-Medium';}
	.st3{font-size:11px;}
</style>
<g transform="translate(423.5,423.5)">
	<path class="st0" d="M225.3,63.8c-42,28.2,38.4-32.9,76.8-65.8"/>
	<path class="st0" d="M225.3,63.8c-42,28.2,36.3,35.2,72.6,70.4"/>
	<path class="st0" d="M225.3,63.8c-42,28.2-42.9,26.8-85.8,53.6"/>
	<path class="st0" d="M225.3,63.8c-42,28.2-38.4-32.9-76.8-65.8"/>
	<path class="st0" d="M225.3,63.8c-42,28.2-23.9-44.6-47.9-89.1"/>
	<path class="st0" d="M225.3,63.8c-42,28.2-6.2-50.2-12.4-100.4"/>
	<path class="st0" d="M302.2-2.1c38.4-32.9-58.2-84.8-52-135"/>
	<path class="st0" d="M302.2-2.1c38.4-32.9-22-75.7-3.7-122.8"/>
	<path class="st0" d="M302.2-2.1c38.4-32.9,10.9-58,40.1-99.3"/>
	<path class="st0" d="M302.2-2.1C340.6-35,340.6-35,379-67.9"/>
	<path class="st0" d="M302.2-2.1c38.4-32.9,59-1.8,104.3-24.4"/>
	<path class="st0" d="M302.2-2.1C340.6-35,373.6,31.3,423,20.5"/>
	<path class="st0" d="M302.2-2.1C340.6-35,377,68.4,427.6,70"/>
	<path class="st0" d="M250.2-137c6.2-50.2,6.2-50.2,12.4-100.4"/>
	<path class="st0" d="M298.4-124.9c18.3-47.2,18.3-47.2,36.5-94.3"/>
	<path class="st0" d="M342.2-101.4c29.2-41.3,29.2-41.3,58.5-82.6"/>
	<path class="st0" d="M379-67.9c38.4-32.9,38.4-32.9,76.8-65.8"/>
	<path class="st0" d="M406.5-26.4C451.7-49,451.7-49,497-71.5"/>
	<path class="st0" d="M423,20.5c49.4-10.8,49.4-10.8,98.8-21.6"/>
	<path class="st0" d="M427.6,70c50.6,1.6,50.6,1.6,101.1,3.1"/>
	<path class="st0" d="M298,134.2c36.3,35.2,73.3-28.9,122-15.1"/>
	<path class="st0" d="M298,134.2c36.3,35.2,58.8,5.4,102.6,30.7"/>
	<path class="st0" d="M298,134.2c36.3,35.2,36.3,35.2,72.6,70.4"/>
	<path class="st0" d="M298,134.2c36.3,35.2,7.3,58.6,33.9,101.6"/>
	<path class="st0" d="M298,134.2c36.3,35.2-26.6,74.2-11.3,122.4"/>
	<path class="st0" d="M419.9,119.1c48.7,13.8,48.7,13.8,97.3,27.7"/>
	<path class="st0" d="M400.6,164.9c43.8,25.3,43.8,25.3,87.6,50.6"/>
	<path class="st0" d="M370.6,204.6c36.3,35.2,36.3,35.2,72.6,70.4"/>
	<path class="st0" d="M331.9,235.8c26.6,43,26.6,43,53.3,86"/>
	<path class="st0" d="M286.7,256.6c15.3,48.2,15.3,48.2,30.7,96.4"/>
	<path class="st0" d="M139.5,117.3c-42.9,26.8,95.2,97.9,98.3,148.4"/>
	<path class="st0" d="M139.5,117.3c-42.9,26.8,57.9,95.6,48.7,145.3"/>
	<path class="st0" d="M139.5,117.3c-42.9,26.8,14,80.1-9.9,124.7"/>
	<path class="st0" d="M139.5,117.3c-42.9,26.8-23.1,52.1-59.4,87.3"/>
	<path class="st0" d="M139.5,117.3c-42.9,26.8-45.6,22.3-89.4,47.6"/>
	<path class="st0" d="M139.5,117.3c-42.9,26.8-60.1-12-108.8,1.8"/>
	<path class="st0" d="M139.5,117.3C96.6,144.1,73.7,68.4,23.1,70"/>
	<path class="st0" d="M139.5,117.3c-42.9,26.8-62.4-86-111.8-96.8"/>
	<path class="st0" d="M139.5,117.3C96.6,144.1,89.5-3.9,44.2-26.4"/>
	<path class="st0" d="M237.8,265.7c3.1,50.5,3.1,50.5,6.2,101"/>
	<path class="st0" d="M188.2,262.6c-9.3,49.7-9.3,49.7-18.6,99.4"/>
	<path class="st0" d="M129.6,242c-23.9,44.6-10,51.5-31.1,97.5"/>
	<path class="st0" d="M129.6,242c-23.9,44.6-37.4,36.8-64,79.8"/>
	<path class="st0" d="M80.1,204.6C43.8,239.8,43.8,239.8,7.5,275"/>
	<path class="st0" d="M50.1,164.9c-43.8,25.3-43.8,25.3-87.6,50.6"/>
	<path class="st0" d="M30.7,119.1C-17.9,133-17.9,133-66.6,146.8"/>
	<path class="st0" d="M23.1,70c-50.6,1.6-50.6,1.6-101.1,3.1"/>
	<path class="st0" d="M27.7,20.5C-21.7,9.6-21.7,9.6-71.1-1.2"/>
	<path class="st0" d="M44.2-26.4C-1.1-49-1.1-49-46.3-71.5"/>
	<path class="st0" d="M148.5-2.1C110.1-35,110.1-35,71.7-67.9"/>
	<path class="st0" d="M71.7-67.9c-38.4-32.9-38.4-32.9-76.8-65.8"/>
	<path class="st0" d="M177.5-25.4c-23.9-44.6-39.8-34.7-69-76"/>
	<path class="st0" d="M177.5-25.4c-23.9-44.6-7-52.4-25.2-99.5"/>
	<path class="st0" d="M108.4-101.4C79.2-142.7,79.2-142.7,50-184"/>
	<path class="st0" d="M152.2-124.9c-18.3-47.2-18.3-47.2-36.5-94.3"/>
	<path class="st0" d="M212.9-36.6c-6.2-50.2-6.2-50.2-12.4-100.4"/>
	<path class="st0" d="M200.5-137c-6.2-50.2-6.2-50.2-12.4-100.4"/>
	<g transform="rotate(146.1437908496732)translate(0)">
		
			<ellipse transform="matrix(0.8304 -0.5571 0.5571 0.8304 73.7261 -114.729)" class="st1" cx="-151.6" cy="-178.5" rx="4.5" ry="4.5"/>
	</g>
	<g transform="rotate(-40.588235294117645)translate(101.16666666666667)">
		<ellipse transform="matrix(0.7594 -0.6506 0.6506 0.7594 -95.694 131.2715)" class="st1" cx="129.6" cy="195" rx="4.5" ry="4.5"/>
		<text transform="matrix(1 0 0 1 137.6458 198.4338)" class="st2 st3">Action</text>
	</g>
	<g transform="rotate(-82.94117647058823)translate(202.33333333333334)">
		
			<ellipse transform="matrix(0.1229 -0.9924 0.9924 0.1229 -260.9172 167.7136)" class="st1" cx="-35.6" cy="231.5" rx="4.5" ry="4.5"/>
		<text transform="matrix(1 0 0 1 -27.5772 234.8761)" class="st2 st3">237</text>
	</g>
	<g transform="rotate(-82.94117647058823)translate(303.5)">
		
			<ellipse transform="matrix(0.1229 -0.9924 0.9924 0.1229 -260.9172 167.7136)" class="st1" cx="-35.6" cy="231.5" rx="4.5" ry="4.5"/>
		<text transform="matrix(1 0 0 1 -27.5767 234.8759)" class="st2 st3">Avatar</text>
	</g>
	<g transform="rotate(-68.82352941176471)translate(202.33333333333334)">
		
			<ellipse transform="matrix(0.3612 -0.9325 0.9325 0.3612 -203.3848 169.4006)" class="st1" cx="22" cy="233.2" rx="4.5" ry="4.5"/>
		<text transform="matrix(1 0 0 1 29.9553 236.5628)" class="st2 st3">178</text>
	</g>
	<g transform="rotate(-68.82352941176471)translate(303.5)">
		
			<ellipse transform="matrix(0.3612 -0.9325 0.9325 0.3612 -203.3848 169.4006)" class="st1" cx="22" cy="233.2" rx="4.5" ry="4.5"/>
		<text transform="matrix(1 0 0 1 29.956 236.5623)" class="st2 st3">Iron Man 3</text>
	</g>
	<g transform="rotate(-54.705882352941174)translate(202.33333333333334)">
		
			<ellipse transform="matrix(0.5778 -0.8162 0.8162 0.5778 -147.1787 157.0035)" class="st1" cx="78.2" cy="220.8" rx="4.5" ry="4.5"/>
		<text transform="matrix(1 0 0 1 86.1615 224.1653)" class="st2 st3">53</text>
	</g>
	<g transform="rotate(-54.705882352941174)translate(303.5)">
		
			<ellipse transform="matrix(0.5778 -0.8162 0.8162 0.5778 -147.1787 157.0035)" class="st1" cx="78.2" cy="220.8" rx="4.5" ry="4.5"/>
		<text transform="matrix(1 0 0 1 86.1617 224.1651)" class="st2 st3">Jurassic Park</text>
	</g>
	<g transform="rotate(-40.588235294117645)translate(202.33333333333334)">
		<ellipse transform="matrix(0.7594 -0.6506 0.6506 0.7594 -95.694 131.2715)" class="st1" cx="129.6" cy="195" rx="4.5" ry="4.5"/>
		<text transform="matrix(1 0 0 1 137.6457 198.4339)" class="st2 st3">200</text>
	</g>
	<g transform="rotate(-40.588235294117645)translate(303.5)">
		<ellipse transform="matrix(0.7594 -0.6506 0.6506 0.7594 -95.694 131.2715)" class="st1" cx="129.6" cy="195" rx="4.5" ry="4.5"/>
		<text transform="matrix(1 0 0 1 137.6456 198.4339)" class="st2 st3">Quantum of Solace</text>
	</g>
	<g transform="rotate(-26.470588235294116)translate(202.33333333333334)">
		
			<ellipse transform="matrix(0.8952 -0.4457 0.4457 0.8952 -52.0407 93.7589)" class="st1" cx="173.3" cy="157.5" rx="4.5" ry="4.5"/>
		<text transform="matrix(1 0 0 1 181.2989 160.9213)" class="st2 st3">185</text>
	</g>
	<g transform="rotate(-26.470588235294116)translate(303.5)">
		
			<ellipse transform="matrix(0.8952 -0.4457 0.4457 0.8952 -52.0407 93.7589)" class="st1" cx="173.3" cy="157.5" rx="4.5" ry="4.5"/>
		<text transform="matrix(1 0 0 1 181.2989 160.9214)" class="st2 st3">The Dark Knight</text>
	</g>
	<g transform="rotate(-12.35294117647058)translate(202.33333333333334)">
		
			<ellipse transform="matrix(0.9768 -0.2139 0.2139 0.9768 -18.8557 46.7316)" class="st1" cx="206.5" cy="110.5" rx="4.5" ry="4.5"/>
		<text transform="matrix(1 0 0 1 214.4839 113.8939)" class="st2 st3">132</text>
	</g>
	<g transform="rotate(-12.35294117647058)translate(303.5)">
		
			<ellipse transform="matrix(0.9768 -0.2139 0.2139 0.9768 -18.8557 46.7316)" class="st1" cx="206.5" cy="110.5" rx="4.5" ry="4.5"/>
		<text transform="matrix(1 0 0 1 214.4838 113.8939)" class="st2 st3">The War of the Worlds</text>
	</g>
	<g transform="rotate(1.7647058823529278)translate(202.33333333333334)">
		
			<ellipse transform="matrix(3.079506e-002 -0.9995 0.9995 3.079506e-002 163.4435 282.1222)" class="st1" cx="227.2" cy="56.8" rx="4.5" ry="4.5"/>
		<text transform="matrix(1 0 0 1 235.1957 60.1928)" class="st2 st3">210</text>
	</g>
	<g transform="rotate(1.7647058823529278)translate(303.5)">
		
			<ellipse transform="matrix(3.079506e-002 -0.9995 0.9995 3.079506e-002 163.4435 282.1222)" class="st1" cx="227.2" cy="56.8" rx="4.5" ry="4.5"/>
		<text transform="matrix(1 0 0 1 235.1957 60.1929)" class="st2 st3">X-Men: The Last Stand</text>
	</g>
	<g transform="rotate(44.117647058823536)translate(101.16666666666667)">
		
			<ellipse transform="matrix(0.6961 -0.7179 0.7179 0.6961 142.4017 114.2416)" class="st1" cx="206.2" cy="-111.1" rx="4.5" ry="4.5"/>
		<text transform="matrix(1 0 0 1 214.1543 -107.6881)" class="st2 st3">Drama</text>
	</g>
	<g transform="rotate(15.882352941176478)translate(202.33333333333334)">
		
			<ellipse transform="matrix(0.2737 -0.9618 0.9618 0.2737 170.4315 224.991)" class="st1" cx="234.2" cy="-0.3" rx="4.5" ry="4.5"/>
		<text transform="matrix(1 0 0 1 242.184 3.0617)" class="st2 st3">11</text>
	</g>
	<g transform="rotate(15.882352941176478)translate(303.5)">
		
			<ellipse transform="matrix(0.2737 -0.9618 0.9618 0.2737 170.4315 224.991)" class="st1" cx="234.2" cy="-0.3" rx="4.5" ry="4.5"/>
		<text transform="matrix(1 0 0 1 242.184 3.0617)" class="st2 st3">ET: The Extra-Terrestrial</text>
	</g>
	<g transform="rotate(30)translate(202.33333333333334)">
		<ellipse transform="matrix(0.5 -0.866 0.866 0.5 163.2736 167.8809)" class="st1" cx="227" cy="-57.5" rx="4.5" ry="4.5"/>
		<text transform="matrix(1 0 0 1 235.026 -54.0485)" class="st2 st3">29</text>
	</g>
	<g transform="rotate(30)translate(303.5)">
		<ellipse transform="matrix(0.5 -0.866 0.866 0.5 163.2736 167.8809)" class="st1" cx="227" cy="-57.5" rx="4.5" ry="4.5"/>
		<text transform="matrix(1 0 0 1 235.0262 -54.0487)" class="st2 st3">The Blind Side</text>
	</g>
	<g transform="rotate(44.117647058823536)translate(202.33333333333334)">
		
			<ellipse transform="matrix(0.6961 -0.7179 0.7179 0.6961 142.4017 114.2416)" class="st1" cx="206.2" cy="-111.1" rx="4.5" ry="4.5"/>
		<text transform="matrix(1 0 0 1 214.1544 -107.6882)" class="st2 st3">50</text>
	</g>
	<g transform="rotate(44.117647058823536)translate(303.5)">
		
			<ellipse transform="matrix(0.6961 -0.7179 0.7179 0.6961 142.4017 114.2416)" class="st1" cx="206.2" cy="-111.1" rx="4.5" ry="4.5"/>
		<text transform="matrix(1 0 0 1 214.1545 -107.6883)" class="st2 st3">The Twilight Saga: New Moon</text>
	</g>
	<g transform="rotate(58.235294117647044)translate(202.33333333333334)">
		<ellipse transform="matrix(0.8502 -0.5264 0.5264 0.8502 109.077 67.3133)" class="st1" cx="172.8" cy="-158" rx="4.5" ry="4.5"/>
		<text transform="matrix(1 0 0 1 180.8296 -154.6165)" class="st2 st3">30</text>
	</g>
	<g transform="rotate(58.235294117647044)translate(303.5)">
		<ellipse transform="matrix(0.8502 -0.5264 0.5264 0.8502 109.077 67.3133)" class="st1" cx="172.8" cy="-158" rx="4.5" ry="4.5"/>
		<text transform="matrix(1 0 0 1 180.8298 -154.6169)" class="st2 st3">The Vow</text>
	</g>
	<g transform="rotate(72.35294117647058)translate(202.33333333333334)">
		
			<ellipse transform="matrix(0.9529 -0.3032 0.3032 0.9529 65.3122 29.9307)" class="st1" cx="129.1" cy="-195.4" rx="4.5" ry="4.5"/>
		<text transform="matrix(1 0 0 1 137.0647 -191.9992)" class="st2 st3">65</text>
	</g>
	<g transform="rotate(72.35294117647058)translate(303.5)">
		
			<ellipse transform="matrix(0.9529 -0.3032 0.3032 0.9529 65.3122 29.9307)" class="st1" cx="129.1" cy="-195.4" rx="4.5" ry="4.5"/>
		<text transform="matrix(1 0 0 1 137.0647 -191.9992)" class="st2 st3">You&apos;ve Got Mail</text>
	</g>
	<g transform="rotate(148.0392156862745)translate(101.16666666666667)">
		
			<ellipse transform="matrix(0.8484 -0.5293 0.5293 0.8484 67.9056 -109.6167)" class="st1" cx="-157.4" cy="-173.4" rx="4.5" ry="4.5"/>
		<text transform="matrix(-1 0 0 -1 -99.2892 -176.779)" class="st2 st3">Adventure</text>
	</g>
	<g transform="rotate(86.47058823529412)translate(202.33333333333334)">
		
			<ellipse transform="matrix(0.9981 -6.156090e-002 6.156090e-002 0.9981 13.7512 4.3521)" class="st1" cx="77.5" cy="-221" rx="4.5" ry="4.5"/>
		<text transform="matrix(1 0 0 1 85.5037 -217.5793)" class="st2 st3">94</text>
	</g>
	<g transform="rotate(86.47058823529412)translate(303.5)">
		
			<ellipse transform="matrix(0.9981 -6.156090e-002 6.156090e-002 0.9981 13.7512 4.3521)" class="st1" cx="77.5" cy="-221" rx="4.5" ry="4.5"/>
		<text transform="matrix(1 0 0 1 85.5038 -217.5799)" class="st2 st3">Finding Nemo</text>
	</g>
	<g transform="rotate(100.58823529411765)translate(202.33333333333334)">
		
			<ellipse transform="matrix(0.1837 -0.983 0.983 0.1837 246.6005 -169.4647)" class="st1" cx="21.3" cy="-233.2" rx="4.5" ry="4.5"/>
		<text transform="matrix(-1 0 0 -1 47.6133 -236.627)" class="st2 st3">207</text>
	</g>
	<g transform="rotate(100.58823529411765)translate(303.5)">
		
			<ellipse transform="matrix(0.1837 -0.983 0.983 0.1837 246.6005 -169.4647)" class="st1" cx="21.3" cy="-233.2" rx="4.5" ry="4.5"/>
		<text transform="matrix(-1 0 0 -1 80.0227 -236.6271)" class="st2 st3">King Kong</text>
	</g>
	<g transform="rotate(118.23529411764707)translate(202.33333333333334)">
		
			<ellipse transform="matrix(0.4731 -0.881 0.881 0.4731 174.8994 -164.9354)" class="st1" cx="-50.4" cy="-228.7" rx="4.5" ry="4.5"/>
		<text transform="matrix(-1 0 0 -1 -24.9045 -232.0971)" class="st2 st3">115</text>
	</g>
	<g transform="rotate(114.70588235294116)translate(303.5)">
		
			<ellipse transform="matrix(0.418 -0.9085 0.9085 0.418 189.0734 -167.6067)" class="st1" cx="-36.3" cy="-231.4" rx="4.5" ry="4.5"/>
		<text transform="matrix(-1 0 0 -1 40.8106 -234.7687)" class="st2 st3">Monsters, Inc.</text>
	</g>
	<g transform="rotate(121.76470588235296)translate(303.5)">
		
			<ellipse transform="matrix(0.5264 -0.8502 0.8502 0.5264 160.9169 -161.3964)" class="st1" cx="-64.4" cy="-225.1" rx="4.5" ry="4.5"/>
		<text transform="matrix(-1 0 0 -1 131.8814 -228.5581)" class="st2 st3">Star Wars Ep. I: The Phantom Menace</text>
	</g>
	<g transform="rotate(135.88235294117646)translate(202.33333333333334)">
		
			<ellipse transform="matrix(0.7179 -0.6961 0.6961 0.7179 107.9458 -138.8827)" class="st1" cx="-117.4" cy="-202.6" rx="4.5" ry="4.5"/>
		<text transform="matrix(-1 0 0 -1 -91.0406 -206.0453)" class="st2 st3">160</text>
	</g>
	<g transform="rotate(135.88235294117646)translate(303.5)">
		
			<ellipse transform="matrix(0.7179 -0.6961 0.6961 0.7179 107.9458 -138.8827)" class="st1" cx="-117.4" cy="-202.6" rx="4.5" ry="4.5"/>
		<text transform="matrix(-1 0 0 -1 20.8391 -206.045)" class="st2 st3">Oz the Great and Powerful</text>
	</g>
	<g transform="rotate(150)translate(202.33333333333334)">
		<ellipse transform="matrix(0.866 -0.5 0.5 0.866 62.066 -104.1286)" class="st1" cx="-163.3" cy="-167.9" rx="4.5" ry="4.5"/>
		<text transform="matrix(-1 0 0 -1 -136.9207 -171.2909)" class="st2 st3">225</text>
	</g>
	<g transform="rotate(150)translate(303.5)">
		<ellipse transform="matrix(0.866 -0.5 0.5 0.866 62.066 -104.1286)" class="st1" cx="-163.3" cy="-167.9" rx="4.5" ry="4.5"/>
		<text transform="matrix(-1 0 0 -1 59.6079 -171.291)" class="st2 st3">Pirates of the Caribbean: Dead Man&apos;s Chest</text>
	</g>
	<g transform="rotate(164.11764705882354)translate(202.33333333333334)">
		
			<ellipse transform="matrix(0.9618 -0.2737 0.2737 0.9618 26.0488 -59.2334)" class="st1" cx="-199.3" cy="-123" rx="4.5" ry="4.5"/>
		<text transform="matrix(-1 0 0 -1 -179.0552 -126.3956)" class="st2 st3">18</text>
	</g>
	<g transform="rotate(164.11764705882354)translate(303.5)">
		
			<ellipse transform="matrix(0.9618 -0.2737 0.2737 0.9618 26.0488 -59.2334)" class="st1" cx="-199.3" cy="-123" rx="4.5" ry="4.5"/>
		<text transform="matrix(-1 0 0 -1 -80.0123 -126.3957)" class="st2 st3">Raiders of the Lost Ark</text>
	</g>
	<g transform="rotate(178.23529411764707)translate(202.33333333333334)">
		
			<ellipse transform="matrix(0.9995 -3.079512e-002 3.079512e-002 0.9995 2.0701 -6.9091)" class="st1" cx="-223.3" cy="-70.7" rx="4.5" ry="4.5"/>
		<text transform="matrix(-1 0 0 -1 -196.9163 -74.0715)" class="st2 st3">180</text>
	</g>
	
		<ellipse transform="matrix(0.9995 -3.079512e-002 3.079512e-002 0.9995 -2.2881 -2.3679)" class="st1" cx="-78" cy="73.1" rx="4.5" ry="4.5"/>
	<text transform="matrix(0.9995 -3.079512e-002 3.079512e-002 0.9995 -398.8081 86.3938)" class="st2 st3">The Chronicles of Narnia: The Lion, the Witch and the Wardrobe</text>
	<g transform="rotate(192.3529411764706)translate(202.33333333333334)">
		
			<ellipse transform="matrix(0.2139 -0.9768 0.9768 0.2139 -170.009 -239.4084)" class="st1" cx="-233.8" cy="-14.1" rx="4.5" ry="4.5"/>
		<text transform="matrix(-1 0 0 -1 -213.5261 -17.4787)" class="st2 st3">45</text>
	</g>
	<g transform="rotate(192.3529411764706)translate(303.5)">
		
			<ellipse transform="matrix(0.2139 -0.9768 0.9768 0.2139 -170.009 -239.4084)" class="st1" cx="-233.8" cy="-14.1" rx="4.5" ry="4.5"/>
		<text transform="matrix(-1 0 0 -1 -157.8816 -17.4785)" class="st2 st3">The Lion King</text>
	</g>
	<g transform="rotate(206.4705882352941)translate(202.33333333333334)">
		
			<ellipse transform="matrix(0.4457 -0.8952 0.8952 0.4457 -166.3802 -181.9659)" class="st1" cx="-230.1" cy="43.4" rx="4.5" ry="4.5"/>
		<text transform="matrix(-1 0 0 -1 -203.7796 39.9635)" class="st2 st3">175</text>
	</g>
	<g transform="rotate(206.4705882352941)translate(303.5)">
		
			<ellipse transform="matrix(0.4457 -0.8952 0.8952 0.4457 -166.3802 -181.9659)" class="st1" cx="-230.1" cy="43.4" rx="4.5" ry="4.5"/>
		<text transform="matrix(-1 0 0 -1 -208.0709 39.9636)" class="st2 st3">Up</text>
	</g>
	<g transform="rotate(220.58823529411768)translate(101.16666666666667)">
		
			<ellipse transform="matrix(0.6506 -0.7594 0.7594 0.6506 -148.85 -127.1434)" class="st1" cx="-212.6" cy="98.2" rx="4.5" ry="4.5"/>
		<text transform="matrix(-1 0 0 -1 -163.6426 94.7862)" class="st2 st3">Comedy</text>
	</g>
	<g transform="rotate(220.58823529411768)translate(202.33333333333334)">
		
			<ellipse transform="matrix(0.6506 -0.7594 0.7594 0.6506 -148.85 -127.1434)" class="st1" cx="-212.6" cy="98.2" rx="4.5" ry="4.5"/>
		<text transform="matrix(-1 0 0 -1 -186.2495 94.7861)" class="st2 st3">144</text>
	</g>
	<g transform="rotate(220.58823529411768)translate(303.5)">
		
			<ellipse transform="matrix(0.6506 -0.7594 0.7594 0.6506 -148.85 -127.1434)" class="st1" cx="-212.6" cy="98.2" rx="4.5" ry="4.5"/>
		<text transform="matrix(-1 0 0 -1 -139.1825 94.7862)" class="st2 st3">Ghostbusters</text>
	</g>
	<g transform="rotate(241.76470588235293)translate(101.16666666666667)">
		
			<ellipse transform="matrix(0.881 -0.4731 0.4731 0.881 -99.0209 -56.9735)" class="st1" cx="-162.8" cy="168.4" rx="4.5" ry="4.5"/>
		<text transform="matrix(-1 0 0 -1 -69.1798 164.956)" class="st2 st3">Thriller/Suspense</text>
	</g>
	<g transform="rotate(234.70588235294116)translate(202.33333333333334)">
		
			<ellipse transform="matrix(0.8162 -0.5778 0.5778 0.8162 -118.4773 -78.2525)" class="st1" cx="-182.2" cy="147.1" rx="4.5" ry="4.5"/>
		<text transform="matrix(-1 0 0 -1 -161.9946 143.6769)" class="st2 st3">78</text>
	</g>
	<g transform="rotate(234.70588235294116)translate(303.5)">
		
			<ellipse transform="matrix(0.8162 -0.5778 0.5778 0.8162 -118.4773 -78.2525)" class="st1" cx="-182.2" cy="147.1" rx="4.5" ry="4.5"/>
		<text transform="matrix(-1 0 0 -1 -77.6309 143.6772)" class="st2 st3">The Hunger Games</text>
	</g>
	<g transform="rotate(248.8235294117647)translate(202.33333333333334)">
		
			<ellipse transform="matrix(0.9325 -0.3612 0.3612 0.9325 -77.0969 -38.2467)" class="st1" cx="-140.8" cy="187.1" rx="4.5" ry="4.5"/>
		<text transform="matrix(-1 0 0 -1 -114.4965 183.6832)" class="st2 st3">200</text>
	</g>
	<g transform="rotate(248.8235294117647)translate(303.5)">
		
			<ellipse transform="matrix(0.9325 -0.3612 0.3612 0.9325 -77.0969 -38.2467)" class="st1" cx="-140.8" cy="187.1" rx="4.5" ry="4.5"/>
		<text transform="matrix(-1 0 0 -1 -100.8596 183.6833)" class="st2 st3">Titanic</text>
	</g>
	<g transform="rotate(262.94117647058823)translate(101.16666666666667)">
		<ellipse transform="matrix(0.9924 -0.1229 0.1229 0.9924 -27.2084 -9.5424)" class="st1" cx="-91" cy="215.8" rx="4.5" ry="4.5"/>
		<text transform="matrix(-1 0 0 -1 7.515 212.3881)" class="st2 st3">Romantic Comedy</text>
	</g>
	<g transform="rotate(262.94117647058823)translate(202.33333333333334)">
		<ellipse transform="matrix(0.9924 -0.1229 0.1229 0.9924 -27.2084 -9.5424)" class="st1" cx="-91" cy="215.8" rx="4.5" ry="4.5"/>
		<text transform="matrix(-1 0 0 -1 -70.7257 212.388)" class="st2 st3">80</text>
	</g>
	<g transform="rotate(262.94117647058823)translate(303.5)">
		<ellipse transform="matrix(0.9924 -0.1229 0.1229 0.9924 -27.2084 -9.5424)" class="st1" cx="-91" cy="215.8" rx="4.5" ry="4.5"/>
		<text transform="matrix(-1 0 0 -1 -30.3725 212.3876)" class="st2 st3">Zookeeper</text>
	</g>
</g>
</svg>
