<?xml version="1.0" encoding="utf-8"?>
<!-- Generator: Adobe Illustrator 19.2.0, SVG Export Plug-In . SVG Version: 6.00 Build 0)  -->
<svg version="1.1" id="Layer_1" xmlns="http://www.w3.org/2000/svg" xmlns:xlink="http://www.w3.org/1999/xlink" x="0px" y="0px"
	 viewBox="0 0 847 500" style="enable-background:new 0 0 847 500;" xml:space="preserve">
<style type="text/css">
	.st0{fill:#BF6969;stroke:#FFFFFF;}
	.st1{font-family:'FranklinGothic-Medium';}
	.st2{font-size:11px;}
	.st3{fill:#BF7969;stroke:#FFFFFF;}
	.st4{fill:#BF8869;stroke:#FFFFFF;}
	.st5{fill:#BF9869;stroke:#FFFFFF;}
	.st6{fill:#BFA769;stroke:#FFFFFF;}
	.st7{fill:#BFB769;stroke:#FFFFFF;}
	.st8{fill:#B7BF69;stroke:#FFFFFF;}
	.st9{fill:#A7BF69;stroke:#FFFFFF;}
	.st10{fill:#98BF69;stroke:#FFFFFF;}
	.st11{fill:#88BF69;stroke:#FFFFFF;}
	.st12{fill:#79BF69;stroke:#FFFFFF;}
	.st13{fill:#69BF69;stroke:#FFFFFF;}
	.st14{fill:#69BF79;stroke:#FFFFFF;}
	.st15{fill:#69BF88;stroke:#FFFFFF;}
	.st16{fill:#69B7BF;stroke:#FFFFFF;}
	.st17{fill:#6998BF;stroke:#FFFFFF;}
	.st18{fill:#69BFB7;stroke:#FFFFFF;}
	.st19{fill:#69A7BF;stroke:#FFFFFF;}
	.st20{fill:#6988BF;stroke:#FFFFFF;}
	.st21{fill:#6979BF;stroke:#FFFFFF;}
	.st22{fill:#6969BF;stroke:#FFFFFF;}
	.st23{fill:#7969BF;stroke:#FFFFFF;}
	.st24{fill:#8869BF;stroke:#FFFFFF;}
	.st25{fill:#9869BF;stroke:#FFFFFF;}
	.st26{fill:#A769BF;stroke:#FFFFFF;}
	.st27{fill:#B769BF;stroke:#FFFFFF;}
	.st28{fill:#BF69B7;stroke:#FFFFFF;}
	.st29{fill:#BF69A7;stroke:#FFFFFF;}
	.st30{fill:#BF6998;stroke:#FFFFFF;}
	.st31{fill:#BF6988;stroke:#FFFFFF;}
	.st32{fill:#BF6979;stroke:#FFFFFF;}
	.st33{fill:none;}
	.st34{font-size:12px;}
</style>
<g transform="translate(424,10)">
	<rect x="0.5" y="0.5" class="st0" width="71" height="66"/>
	<title>Angola: 4,772,000</title>
	<text transform="matrix(1 0 0 1 18.8743 37.35)" class="st1 st2">Angola</text>
</g>
<g transform="translate(338,99)">
	<rect x="0.5" y="0.5" class="st3" width="86" height="50"/>
	<title>Tanzania: 4,364,541</title>
	<text transform="matrix(1 0 0 1 21.4839 29.35)" class="st1 st2">Tanzania</text>
</g>
<g transform="translate(424,76)">
	<rect x="0.5" y="0.5" class="st4" width="71" height="73"/>
	<title>Sudan: 5,172,000</title>
	<text transform="matrix(1 0 0 1 20.0962 40.85)" class="st1 st2">Sudan</text>
</g>
<g transform="translate(338,10)">
	<rect x="0.5" y="0.5" class="st5" width="86" height="42"/>
	<title>South Africa: 3,670,000</title>
	<text transform="matrix(1 0 0 1 13.8435 25.35)" class="st1 st2">South Africa</text>
</g>
<g transform="translate(495,10)">
	<rect x="0.5" y="0.5" class="st6" width="107" height="59"/>
	<title>Somalia: 6,346,000</title>
	<text transform="matrix(1 0 0 1 34.1296 33.85)" class="st1 st2">Somalia</text>
</g>
<g transform="translate(711,10)">
	<rect x="0.5" y="0.5" class="st7" width="126" height="139"/>
	<title>Nigeria: 17,578,000</title>
	<text transform="matrix(1 0 0 1 46.0762 73.85)" class="st1 st2">Nigeria</text>
</g>
<g transform="translate(338,52)">
	<rect x="0.5" y="0.5" class="st8" width="86" height="47"/>
	<title>Ivory Coast: 4,125,000</title>
	<text transform="matrix(1 0 0 1 15.6858 27.85)" class="st1 st2">Ivory Coast</text>
</g>
<g transform="translate(602,10)">
	<rect x="0.5" y="0.5" class="st9" width="109" height="139"/>
	<title>Egypt: 15,388,000</title>
	<text transform="matrix(1 0 0 1 40.9358 73.85)" class="st1 st2">Egypt</text>
</g>
<rect x="495.5" y="69.5" class="st10" width="107" height="80"/>
<title>Democratic Republic of the Congo: 8,754,000</title>
<g transform="translate(484,159)">
	<rect x="0.5" y="0.5" class="st11" width="353" height="85"/>
	<title>India: 29,230,314</title>
	<text transform="matrix(1 0 0 1 165.0735 46.85)" class="st1 st2">India</text>
</g>
<g transform="translate(484,244)">
	<rect x="0.5" y="0.5" class="st12" width="353" height="246"/>
	<title>China: 84,520,700</title>
	<text transform="matrix(1 0 0 1 162.6296 127.35)" class="st1 st2">China</text>
</g>
<g transform="translate(338,159)">
	<rect x="0.5" y="0.5" class="st13" width="146" height="71"/>
	<title>Indonesia: 10,075,310</title>
	<text transform="matrix(1 0 0 1 49.647 39.85)" class="st1 st2">Indonesia</text>
</g>
<g transform="translate(338,230)">
	<rect x="0.5" y="0.5" class="st14" width="146" height="95"/>
	<title>Japan: 13,513,734</title>
	<text transform="matrix(1 0 0 1 58.5146 51.85)" class="st1 st2">Japan</text>
</g>
<g transform="translate(338,325)">
	<rect x="0.5" y="0.5" class="st15" width="146" height="165"/>
	<title>Pakistan: 23,500,000</title>
	<text transform="matrix(1 0 0 1 52.405 86.85)" class="st1 st2">Pakistan</text>
</g>
<g transform="translate(230,313)">
	<rect x="0.5" y="0.5" class="st16" width="98" height="177"/>
	<title>Russia: 17,555,816</title>
	<text transform="matrix(1 0 0 1 32.6885 92.85)" class="st1 st2">Russia</text>
</g>
<g transform="translate(66,349)">
	<rect x="0.5" y="0.5" class="st17" width="86" height="41"/>
	<title>Germany: 3,562,166</title>
	<text transform="matrix(1 0 0 1 20.8823 24.85)" class="st1 st2">Germany</text>
</g>
<g transform="translate(10,387)">
	<rect x="0.5" y="0.5" class="st18" width="56" height="51"/>
	<title>Italy: 2,874,038</title>
	<text transform="matrix(1 0 0 1 18.4131 29.85)" class="st1 st2">Italy</text>
</g>
<g transform="translate(66,390)">
	<rect x="0.5" y="0.5" class="st16" width="86" height="100"/>
	<title>United Kingdom: 8,673,713</title>
	<text transform="matrix(1 0 0 1 4.3662 54.35)" class="st1 st2">United Kingdom</text>
</g>
<g transform="translate(10,347)">
	<rect x="0.5" y="0.5" class="st19" width="56" height="40"/>
	<title>France: 2,241,346</title>
	<text transform="matrix(1 0 0 1 11.3823 24.35)" class="st1 st2">France</text>
</g>
<g transform="translate(10,438)">
	<rect x="0.5" y="0.5" class="st17" width="56" height="52"/>
	<title>Ukraine: 2,909,491</title>
	<text transform="matrix(1 0 0 1 9.5481 30.35)" class="st1 st2">Ukraine</text>
</g>
<g transform="translate(152,313)">
	<rect x="0.5" y="0.5" class="st20" width="78" height="177"/>
	<title>Turkey: 14,025,646</title>
	<text transform="matrix(1 0 0 1 22.8953 92.85)" class="st1 st2">Turkey</text>
</g>
<g transform="translate(66,313)">
	<rect x="0.5" y="0.5" class="st21" width="86" height="36"/>
	<title>Spain: 3,165,235</title>
	<text transform="matrix(1 0 0 1 29.4331 22.35)" class="st1 st2">Spain</text>
</g>
<g transform="translate(10,313)">
	<rect x="0.5" y="0.5" class="st22" width="56" height="34"/>
	<title>Belarus: 1,949,400</title>
	<text transform="matrix(1 0 0 1 9.8516 21.35)" class="st1 st2">Belarus</text>
</g>
<g transform="translate(69,10)">
	<rect x="0.5" y="0.5" class="st23" width="93" height="110"/>
	<title>Mexico: 10,596,331</title>
	<text transform="matrix(1 0 0 1 29.5789 59.35)" class="st1 st2">Mexico</text>
</g>
<g transform="translate(162,10)">
	<rect x="0.5" y="0.5" class="st24" width="166" height="110"/>
	<title>United States: 19,106,500</title>
	<text transform="matrix(1 0 0 1 50.4812 59.35)" class="st1 st2">United States</text>
</g>
<g transform="translate(10,10)">
	<rect x="0.5" y="0.5" class="st25" width="59" height="34"/>
	<title>Cuba: 2,117,625</title>
	<text transform="matrix(1 0 0 1 16.8516 21.35)" class="st1 st2">Cuba</text>
</g>
<g transform="translate(10,44)">
	<rect x="0.5" y="0.5" class="st26" width="59" height="76"/>
	<title>Canada: 4,579,532</title>
	<text transform="matrix(1 0 0 1 10.7339 42.35)" class="st1 st2">Canada</text>
</g>
<g transform="translate(174,130)">
	<rect x="0.5" y="0.5" class="st27" width="154" height="173"/>
	<title>Brazil: 26,871,561</title>
	<text transform="matrix(1 0 0 1 63.7473 90.85)" class="st1 st2">Brazil</text>
</g>
<g transform="translate(78,211)">
	<rect x="0.5" y="0.5" class="st28" width="96" height="92"/>
	<title>Peru: 8,894,412</title>
	<text transform="matrix(1 0 0 1 36.8823 50.35)" class="st1 st2">Peru</text>
</g>
<g transform="translate(10,130)">
	<rect x="0.5" y="0.5" class="st29" width="68" height="45"/>
	<title>Argentina: 3,054,267</title>
	<text transform="matrix(1 0 0 1 10.9558 26.85)" class="st1 st2">Argentina</text>
</g>
<g transform="translate(10,223)">
	<rect x="0.5" y="0.5" class="st30" width="68" height="80"/>
	<title>Chile: 5,507,282</title>
	<text transform="matrix(1 0 0 1 21.9666 44.35)" class="st1 st2">Chile</text>
</g>
<g transform="translate(78,130)">
	<rect x="0.5" y="0.5" class="st31" width="96" height="81"/>
	<title>Colombia: 7,862,277</title>
	<text transform="matrix(1 0 0 1 25.2673 44.85)" class="st1 st2">Colombia</text>
</g>
<g transform="translate(10,175)">
	<rect x="0.5" y="0.5" class="st32" width="68" height="48"/>
	<title>Venezuela: 3,289,886</title>
	<text transform="matrix(1 0 0 1 8.8101 28.35)" class="st1 st2">Venezuela</text>
</g>
<rect x="506.5" y="104.5" class="st33" width="85" height="20"/>
<text transform="matrix(1 0 0 1 532.8223 112.5098)" class="st1 st34">Congo</text>
</svg>
