<?xml version="1.0" encoding="utf-8"?>
<!-- Generator: Adobe Illustrator 19.2.0, SVG Export Plug-In . SVG Version: 6.00 Build 0)  -->
<svg version="1.1" id="Layer_1" xmlns="http://www.w3.org/2000/svg" xmlns:xlink="http://www.w3.org/1999/xlink" x="0px" y="0px"
	 viewBox="0 0 828 334" style="enable-background:new 0 0 828 334;" xml:space="preserve">
<style type="text/css">
	.st0{fill:#B55276;}
	.st1{fill:#EBD516;}
	.st2{fill:#69BFB5;}
	.st3{fill:#424242;}
	.st4{font-family:'FranklinGothic-Medium';}
	.st5{font-size:10px;}
	.st6{font-size:11px;}
</style>
<g>
	<path class="st0" d="M161.3,33c70.9,0,128.3,57.5,128.3,128.3s-57.5,128.3-128.3,128.3S33,232.2,33,161.3c0-12.7,1.9-25.2,5.6-37.3
		l122.8,37.3V33z"/>
</g>
<g>
	<path class="st1" d="M151.7,33.4c3.2-0.2,6.4-0.4,9.7-0.4v128.3L151.7,33.4z"/>
</g>
<g>
	<path class="st2" d="M38.6,124C54,73.3,98.9,37.4,151.7,33.4l9.7,128L38.6,124z"/>
</g>
<text transform="matrix(1 0 0 1 174.5127 216.3875)" class="st3 st4 st5">13.882.883</text>
<text transform="matrix(1 0 0 1 140.8411 100.7123)" class="st3 st4 st5">209.027</text>
<text transform="matrix(1 0 0 1 98.9699 114.7557)" class="st3 st4 st5">3.327.015</text>
<text transform="matrix(1 0 0 1 128.3145 299.6666)" class="st4 st6">United States</text>
<g transform="translate(400,133.33333333333334)">
	<g>
		<path class="st0" d="M28-71.1c54.7,0,99.1,44.4,99.1,99.1c0,50.6-38.2,93.1-88.5,98.5L28,28V-71.1z"/>
	</g>
	<g>
		<path class="st1" d="M-25.6-55.3C-9.6-65.6,9-71.1,28-71.1V28L-25.6-55.3z"/>
	</g>
	<g>
		<path class="st2" d="M38.6,126.5C-15.8,132.3-64.7,93-70.5,38.6c-4-37.3,13.4-73.6,44.9-93.9L28,28L38.6,126.5z"/>
	</g>
	<text transform="matrix(1 0 0 1 55.2199 28.8558)" class="st3 st4 st5">5.013.724</text>
	<text transform="matrix(1 0 0 1 -4.0427 -16.0238)" class="st3 st4 st5">944.615</text>
	<text transform="matrix(1 0 0 1 -40.954 47.9859)" class="st3 st4 st5">4.422.042</text>
	<text transform="matrix(1 0 0 1 13.6296 137.0685)" class="st4 st6">China</text>
</g>
<g transform="translate(666.6666666666667,133.33333333333334)">
	<g>
		<path class="st0" d="M28-38.1c36.5,0,66.1,29.6,66.1,66.1S64.5,94.1,28,94.1c-30.7,0-57.3-21.1-64.3-51L28,28V-38.1z"/>
	</g>
	<g>
		<path class="st1" d="M23-37.9c1.7-0.1,3.3-0.2,5-0.2V28L23-37.9z"/>
	</g>
	<g>
		<path class="st2" d="M-36.3,43.1C-44.7,7.6-22.7-28,12.9-36.3c3.3-0.8,6.7-1.3,10.1-1.6L28,28L-36.3,43.1z"/>
	</g>
	<text transform="matrix(1 0 0 1 31.66 52.0248)" class="st3 st4 st5">3.296.063</text>
	<text transform="matrix(1 0 0 1 11.4626 -1.526)" class="st3 st4 st5">55.396</text>
	<text transform="matrix(1 0 0 1 -20.9017 11.9651)" class="st3 st4 st5">1.269.492</text>
	<text transform="matrix(1 0 0 1 13.0146 104.0989)" class="st4 st6">Japan</text>
</g>
</svg>
